<?xml version="1.0" encoding="UTF-8"?>
<svg version="1.1" xmlns="http://www.w3.org/2000/svg" width="1000" height="1000">
<path d="M0 0 C1.27117676 0.03577148 2.54235352 0.07154297 3.85205078 0.10839844 C88.02569477 2.73230795 172.43185712 27.24629055 258.80029297 80.59814453 C260.77316797 81.85544179 262.75824937 83.08791786 264.75390625 84.30859375 C273.44675373 89.66759897 281.19733073 95.86749857 289.03613281 102.38769531 C292.10103085 104.90392936 295.23918882 107.32321839 298.375 109.75 C303.30886128 113.5881355 307.99632595 117.60784139 312.59765625 121.84375 C315.03946133 124.03541895 317.5586774 126.08109374 320.125 128.125 C334.11304056 139.47041358 346.38326516 152.22974056 357.6875 166.22265625 C360.02218723 169.02664716 362.45452967 171.70192725 364.9375 174.375 C368.90096987 178.68603569 372.53393278 183.1500109 376.04760742 187.83398438 C378.29653905 190.82159722 380.59478336 193.73328911 383.02734375 196.57421875 C391.57579897 206.60833654 398.37178416 217.32554213 405.02685547 228.68676758 C406.50850723 231.17470324 408.01080128 233.64161891 409.53955078 236.1003418 C416.02202424 246.53759924 422.03104615 257.12326226 427.625 268.0625 C428.04765137 268.88782227 428.47030273 269.71314453 428.90576172 270.56347656 C466.45625451 344.26384697 485.40613424 426.21029367 483 509 C482.94634277 510.89878906 482.94634277 510.89878906 482.89160156 512.8359375 C480.51718664 588.6457646 460.75648686 663.12881488 425 730 C424.52933105 730.89444824 424.05866211 731.78889648 423.57373047 732.71044922 C417.02993219 745.13268425 409.99924068 757.12996234 402.34912109 768.90136719 C401.11750937 770.81720765 399.920534 772.74875908 398.73828125 774.6953125 C393.63329984 783.0313393 387.7150826 790.41534472 381.4296875 797.8828125 C378.40146926 801.48687765 375.51886459 805.17792065 372.6875 808.9375 C369.0651373 813.7022091 365.24560912 818.16280854 361.19140625 822.5625 C358.98617948 825.01537256 356.92916686 827.54481284 354.875 830.125 C343.52958642 844.11304056 330.77025944 856.38326516 316.77734375 867.6875 C313.97335284 870.02218723 311.29807275 872.45452967 308.625 874.9375 C304.31204138 878.90273777 299.8462634 882.53773752 295.15942383 886.05200195 C292.20629791 888.27420256 289.33049931 890.54283492 286.53125 892.95703125 C275.55984564 902.35437974 263.57063096 909.71734313 251.1875 917.08349609 C248.0110621 918.99334884 244.87596318 920.9608783 241.73828125 922.93359375 C234.15622104 927.60676685 226.30306527 931.69940459 218.375 935.75 C217.61565155 936.13951843 216.8563031 936.52903687 216.07394409 936.93035889 C202.86708179 943.69295979 189.53044137 950.00300422 175.86181641 955.78613281 C173.31845167 956.86492563 170.78948348 957.97127287 168.26171875 959.0859375 C108.37202953 984.89866643 38.90058737 994.88382711 -26 993 C-27.90676514 992.94634277 -27.90676514 992.94634277 -29.85205078 992.89160156 C-114.02569477 990.26769205 -198.43185712 965.75370945 -284.80029297 912.40185547 C-286.77316797 911.14455821 -288.75824937 909.91208214 -290.75390625 908.69140625 C-299.44675373 903.33240103 -307.19733073 897.13250143 -315.03613281 890.61230469 C-318.10103085 888.09607064 -321.23918882 885.67678161 -324.375 883.25 C-329.30886128 879.4118645 -333.99632595 875.39215861 -338.59765625 871.15625 C-341.03946133 868.96458105 -343.5586774 866.91890626 -346.125 864.875 C-360.11304056 853.52958642 -372.38326516 840.77025944 -383.6875 826.77734375 C-386.02218723 823.97335284 -388.45452967 821.29807275 -390.9375 818.625 C-394.90096987 814.31396431 -398.53393278 809.8499891 -402.04760742 805.16601562 C-404.29653905 802.17840278 -406.59478336 799.26671089 -409.02734375 796.42578125 C-417.57579897 786.39166346 -424.37178416 775.67445787 -431.02685547 764.31323242 C-432.50850723 761.82529676 -434.01080128 759.35838109 -435.53955078 756.8996582 C-442.02202424 746.46240076 -448.03104615 735.87673774 -453.625 724.9375 C-454.25897705 723.6995166 -454.25897705 723.6995166 -454.90576172 722.43652344 C-492.45625451 648.73615303 -511.40613424 566.78970633 -509 484 C-508.96422852 482.73414063 -508.92845703 481.46828125 -508.89160156 480.1640625 C-506.51718664 404.3542354 -486.75648686 329.87118512 -451 263 C-450.52933105 262.10555176 -450.05866211 261.21110352 -449.57373047 260.28955078 C-443.02993219 247.86731575 -435.99924068 235.87003766 -428.34912109 224.09863281 C-427.11750937 222.18279235 -425.920534 220.25124092 -424.73828125 218.3046875 C-419.63329984 209.9686607 -413.7150826 202.58465528 -407.4296875 195.1171875 C-404.40146926 191.51312235 -401.51886459 187.82207935 -398.6875 184.0625 C-395.0651373 179.2977909 -391.24560912 174.83719146 -387.19140625 170.4375 C-384.98617948 167.98462744 -382.92916686 165.45518716 -380.875 162.875 C-369.52958642 148.88695944 -356.77025944 136.61673484 -342.77734375 125.3125 C-339.97335284 122.97781277 -337.29807275 120.54547033 -334.625 118.0625 C-330.31204138 114.09726223 -325.8462634 110.46226248 -321.15942383 106.94799805 C-318.20629791 104.72579744 -315.33049931 102.45716508 -312.53125 100.04296875 C-301.55984564 90.64562026 -289.57063096 83.28265687 -277.1875 75.91650391 C-274.0110621 74.00665116 -270.87596318 72.0391217 -267.73828125 70.06640625 C-260.15622104 65.39323315 -252.30306527 61.30059541 -244.375 57.25 C-243.23597733 56.66572235 -243.23597733 56.66572235 -242.07394409 56.06964111 C-228.86708179 49.30704021 -215.53044137 42.99699578 -201.86181641 37.21386719 C-199.31845167 36.13507437 -196.78948348 35.02872713 -194.26171875 33.9140625 C-134.37202953 8.10133357 -64.90058737 -1.88382711 0 0 Z " fill="#9E2118" transform="translate(514,3)"/>
<path d="M0 0 C12.700606 -0.1394316 25.4010279 -0.24583995 38.10224533 -0.31087303 C44.00089432 -0.3420964 49.89901708 -0.38440511 55.79736328 -0.45263672 C61.49677911 -0.5181495 67.19569091 -0.55377359 72.89545441 -0.56926346 C75.06266456 -0.58029261 77.2298492 -0.60182953 79.39684296 -0.63438034 C102.06028293 -0.96106605 102.06028293 -0.96106605 111 6 C113.38318788 8.51258057 115.30262886 10.98380811 117 14 C117.34720308 14.61687458 117.69440615 15.23374917 118.05213053 15.86931692 C119.05749495 18.12924091 119.25056191 19.56598962 119.251849 22.02061677 C119.25974389 23.21574514 119.25974389 23.21574514 119.26779827 24.43501753 C119.26340179 25.30621703 119.25900531 26.17741653 119.25447559 27.07501602 C119.25768207 28.00752853 119.26088855 28.94004103 119.26419219 29.90081149 C119.27254312 33.04902774 119.26655012 36.19705626 119.26069641 39.34527588 C119.26371478 41.61579284 119.26760267 43.88630879 119.27228898 46.15682292 C119.28261845 52.41462516 119.2803746 58.67237043 119.27610838 64.93017745 C119.27390233 70.98016521 119.28104247 77.03013732 119.28786864 83.08011983 C119.30312831 96.98759212 119.30481163 110.89504623 119.30234561 124.80252513 C119.30051442 135.54178118 119.30226891 146.28103126 119.30657005 157.02028656 C119.30717245 158.56207676 119.30777365 160.10386696 119.30837366 161.64565717 C119.30928089 163.9688823 119.31018956 166.29210744 119.31110601 168.61533257 C119.31953876 190.2230437 119.32386907 211.83075258 119.31969929 233.43846512 C119.31954291 234.25345531 119.31938654 235.0684455 119.31922542 235.90813236 C119.31841961 240.03900402 119.31757384 244.16987566 119.31671212 248.30074731 C119.31654103 249.12117812 119.31636994 249.94160894 119.31619367 250.7869013 C119.31584702 252.44601347 119.31549849 254.10512564 119.31514808 255.76423782 C119.30979142 281.57737648 119.31771842 307.39048099 119.33618164 333.20361328 C119.3568926 362.19335167 119.36762598 391.18306888 119.36360615 420.17281508 C119.3632108 423.26336018 119.36284925 426.35390528 119.36250877 429.44445038 C119.36241804 430.20544091 119.36232731 430.96643144 119.36223383 431.75048229 C119.36106723 443.24481945 119.36772096 454.73913527 119.37832069 466.2334671 C119.39036293 479.30552577 119.39194304 492.37753738 119.37953053 505.44959673 C119.37347865 512.12186777 119.37258578 518.79406668 119.38453293 525.4663372 C119.3953383 531.57181739 119.39235223 537.67712806 119.37827124 543.78260013 C119.37560951 545.9939137 119.37803682 548.20524032 119.38600711 550.41654113 C119.39607775 553.41843964 119.3877211 556.41974492 119.37473011 559.42161942 C119.38203946 560.28345425 119.3893488 561.14528909 119.39687964 562.03324014 C119.32095516 570.47693001 117.03349053 576.82619574 111 583 C105.62274144 587.03294392 101.14041166 589.25811684 94.38354492 589.22705078 C93.28278122 589.22689972 92.18201752 589.22674866 91.04789734 589.22659302 C89.28202019 589.21110916 89.28202019 589.21110916 87.48046875 589.1953125 C85.65990715 589.19106766 85.65990715 589.19106766 83.80256653 589.18673706 C79.93077689 589.17555308 76.05921959 589.1504513 72.1875 589.125 C69.56055022 589.11496792 66.93359681 589.10584246 64.30664062 589.09765625 C57.87101464 589.07561954 51.43552392 589.04215941 45 589 C29.90387162 495.30171394 35.12738271 398.52945285 60.33154297 265.82421875 C61.33571937 261.58159178 62.26149976 257.32273474 63.1875 253.0625 C64.59115799 246.64958255 66.16698604 240.30445711 68 234 C67.27167969 233.7421875 66.54335938 233.484375 65.79296875 233.21875 C41.08702877 222.43797619 25.45251 190.38296688 15.88671875 166.890625 C1.50781973 130.14498352 -2.34838801 93.10882116 -2.375 53.9375 C-2.37708466 52.69062408 -2.37916931 51.44374817 -2.38131714 50.15908813 C-2.37813603 33.3510795 -1.61902892 16.73056818 0 0 Z " fill="#9F2118" transform="translate(760,205)"/>
<path d="M0 0 C36.63 0 73.26 0 111 0 C112.13293785 10.7629096 113.23865067 21.41028697 113.9375 32.1875 C115.16674084 49.73631699 117.13818837 67.22377933 120.51367188 84.49853516 C120.86875027 86.32490728 121.21522393 88.15295835 121.55664062 89.98193359 C133.50523432 153.67931762 156.3283956 217.3283956 203 264 C202.51125141 269.02712833 201.30914723 273.69779558 199.8125 278.5 C189.86585251 311.52754873 182.80420229 345.37631795 178.77734375 379.62890625 C178.27140209 383.89815912 177.69714966 388.14978844 177.06640625 392.40234375 C174.52875293 409.90155215 173.07406499 427.42914553 171.8125 445.0625 C171.72791534 446.21080292 171.64333069 447.35910583 171.55618286 448.54220581 C169.02533938 483.28592507 168.85122004 518.05607169 168.9375 552.875 C168.9684375 570.756875 168.9684375 570.756875 169 589 C136.66 589 104.32 589 71 589 C73.28191489 568.46276596 73.28191489 568.46276596 74.9375 560.125 C76.25500713 553.39107469 77.36373903 546.64765338 78.35546875 539.859375 C79.95491524 528.97986378 81.84525599 518.15866821 83.796875 507.33740234 C84.37300233 504.13610022 84.94060793 500.93336227 85.5078125 497.73046875 C87.63148717 485.84977968 90.03304361 474.07669423 92.77246094 462.32324219 C93.9986116 457.05361336 95.13443108 451.76747695 96.24609375 446.47265625 C96.4257518 445.61919617 96.60540985 444.76573608 96.79051208 443.88641357 C97.15398079 442.15949647 97.51729709 440.43254729 97.88046265 438.70556641 C100.62319014 425.69169786 103.40353472 412.72091159 106.89990234 399.88452148 C108.81615879 392.83891192 110.45940794 385.74792796 112.0625 378.625 C113.87502068 370.60390654 115.84385059 362.69379203 118.25073242 354.83081055 C119.60658777 350.3955918 120.78545387 345.94803629 121.875 341.4375 C126.34522836 323.0478177 132.16407029 304.99299963 138 287 C136.74509766 286.16082031 136.74509766 286.16082031 135.46484375 285.3046875 C125.79168951 278.69479245 117.37767423 271.16592012 109 263 C108.05898438 262.09894531 107.11796875 261.19789063 106.1484375 260.26953125 C85.50381373 240.16818705 69.85540482 215.06036941 56 190 C55.53980469 189.17822266 55.07960938 188.35644531 54.60546875 187.50976562 C42.48749466 165.77074871 33.34363747 142.76189327 25.5 119.1875 C25.25637726 118.45634979 25.01275452 117.72519958 24.76174927 116.97189331 C21.15312733 106.07656294 17.9735458 95.08431919 15 84 C14.71189453 82.9277417 14.42378906 81.8554834 14.12695312 80.75073242 C10.04118143 65.29510709 6.81774601 49.73221875 4 34 C3.70150146 32.35644531 3.70150146 32.35644531 3.39697266 30.6796875 C2.81523073 27.45509342 2.24822235 24.2283098 1.6875 21 C1.43009033 19.55947266 1.43009033 19.55947266 1.16748047 18.08984375 C1.0129541 17.17332031 0.85842773 16.25679687 0.69921875 15.3125 C0.56346436 14.52488281 0.42770996 13.73726562 0.2878418 12.92578125 C-0.13411072 8.63682543 0 4.30966193 0 0 Z " fill="#9F2118" transform="translate(552,205)"/>
<path d="M0 0 C28.05 0 56.1 0 85 0 C84.67 7.26 84.34 14.52 84 22 C83.89764006 26.96011461 83.81493106 31.90763248 83.796875 36.8671875 C83.79117493 38.15529327 83.78547485 39.44339905 83.77960205 40.77053833 C83.76929303 43.45721814 83.76331959 46.14386981 83.75976562 48.83056641 C83.75537618 51.52341214 83.74142341 54.21593836 83.71875 56.90869141 C83.58328779 73.35492312 84.14425614 89.32856989 86.63336182 105.59924316 C87.1148777 108.75222229 87.53149991 111.91326615 87.95703125 115.07421875 C89.93193327 128.41392934 92.78563591 141.18929096 97 154 C97.29390625 154.8981543 97.5878125 155.79630859 97.890625 156.72167969 C105.41529864 179.33555588 115.59073815 199.7143426 131 218 C131.68707031 218.83402344 132.37414062 219.66804687 133.08203125 220.52734375 C136.22974342 224.20818194 139.2522486 227.58674327 143.2734375 230.3125 C143.82870117 230.69140381 144.38396484 231.07030762 144.95605469 231.46069336 C146.54482768 232.50957173 148.16639429 233.50826909 149.7890625 234.50390625 C152 237 152 237 152.20068359 238.91381836 C151.98027338 241.34235285 151.54706809 243.62354183 151 246 C150.81743652 246.80107178 150.63487305 247.60214355 150.44677734 248.42749023 C149.79335932 251.10828 149.08688199 253.77166096 148.375 256.4375 C142.4248933 279.60699302 137.88217842 302.98242905 134.59741211 326.67138672 C134.50341125 327.34882431 134.4094104 328.0262619 134.31256104 328.72422791 C134.06288318 330.53885798 133.81867945 332.35423898 133.57495117 334.16967773 C133.11979906 337.20189917 132.59462846 340.19289754 132.0246582 343.20410156 C130.93346264 349.12848889 130.2148142 355.06411954 129.5625 361.05078125 C129.43689697 362.18484909 129.31129395 363.31891693 129.18188477 364.48735046 C128.91773961 366.88481864 128.6556481 369.28251389 128.39550781 371.68041992 C128.0081462 375.2376907 127.60997924 378.79363255 127.2109375 382.34960938 C124.00495196 411.34801295 122.61722791 440.09684804 122.68214417 469.24644852 C122.68758667 471.79051105 122.68995246 474.33456427 122.6920166 476.87863159 C122.7242159 502.359546 123.31959846 527.64172077 126 553 C126.17840527 554.7280085 126.35662158 556.45603652 126.53466797 558.18408203 C127.60458516 568.46758709 128.78937058 578.73052284 130 589 C106.24 589 82.48 589 58 589 C56.87395772 574.36145034 56.87395772 574.36145034 56.83886719 568.77514648 C56.82465981 566.87152344 56.82465981 566.87152344 56.81016541 564.92944336 C56.80533666 563.57666152 56.80091902 562.22387816 56.796875 560.87109375 C56.78992969 559.4168292 56.7829347 557.96256488 56.77589417 556.50830078 C56.75654909 551.81803117 56.75196258 547.12780476 56.75 542.4375 C56.74926357 541.63517567 56.74852715 540.83285133 56.7477684 540.00621414 C56.71644761 498.06035449 57.98076525 456.04635276 62.62939453 414.32958984 C63.00941263 410.91543516 63.36402147 407.49930017 63.71484375 404.08203125 C68.25363531 360.61900822 75.73511071 317.21218469 88.91772461 275.46899414 C91.1719097 268.35810612 91.1719097 268.35810612 91 261 C89.20536986 258.4589443 87.0057372 256.49659439 84.6875 254.4375 C51.71271305 223.31180553 34.30777277 179.3786684 21 137 C20.6383374 135.86908936 20.2766748 134.73817871 19.90405273 133.57299805 C17.60839846 126.30080371 15.6956879 119.01060431 14.0625 111.5625 C13.80871582 110.40637207 13.55493164 109.25024414 13.29345703 108.05908203 C5.77720744 73.05054162 0 35.88762465 0 0 Z " fill="#9F2118" transform="translate(669,205)"/>
<path d="M0 0 C0.93768253 -0.00581376 1.87536507 -0.01162753 2.84146222 -0.01761746 C5.97737927 -0.03219259 9.11251058 -0.01834345 12.24842167 -0.00457001 C14.5218313 -0.00917989 16.79523796 -0.01553339 19.06863838 -0.02347898 C25.31134642 -0.04018337 31.55380998 -0.03192067 37.79651892 -0.01953411 C43.83901288 -0.01141953 49.88145562 -0.02207172 55.92393947 -0.03212357 C69.04424851 -0.05317745 82.1644796 -0.05136454 95.28479604 -0.03980792 C106.76724811 -0.0297437 118.24967162 -0.02711982 129.73212719 -0.0318985 C130.87483795 -0.03235681 130.87483795 -0.03235681 132.04063377 -0.03282438 C135.13310752 -0.03406974 138.22558125 -0.03534335 141.31805496 -0.03666343 C170.32599728 -0.0488985 199.33388997 -0.0378073 228.34182463 -0.01627585 C254.10881769 0.00270456 279.87573167 0.00100957 305.64272404 -0.01811981 C334.59626878 -0.03954306 363.54976967 -0.04802887 392.50332123 -0.03567076 C395.59045413 -0.0343879 398.67758704 -0.03313654 401.76471996 -0.0318985 C402.52484314 -0.03158219 403.28496633 -0.03126588 404.06812354 -0.03093999 C415.54214932 -0.02639185 427.01614338 -0.03170796 438.49016476 -0.04181671 C451.53864075 -0.05325531 464.58702665 -0.05039123 477.63549142 -0.02869374 C484.29388274 -0.01798685 490.95214895 -0.01407243 497.61054897 -0.02729034 C503.70550187 -0.03920678 509.80014538 -0.03266347 515.8950702 -0.01138014 C518.1002104 -0.00691095 520.30537672 -0.00918737 522.51050013 -0.01888329 C525.50897835 -0.03105647 528.50639856 -0.01856187 531.50482178 0 C532.78754914 -0.014047 532.78754914 -0.014047 534.09619018 -0.02837777 C544.21517741 0.09672694 551.88636358 4.09564055 559.11220646 11.00336456 C566.65185589 19.55899512 567.47051528 28.8425567 567.44396591 39.80417442 C567.44571895 40.7246535 567.44747199 41.64513258 567.44927815 42.59350497 C567.4539358 45.68268505 567.45147324 48.77181802 567.44904423 51.86100006 C567.45091231 54.0962694 567.453213 56.33153842 567.45590955 58.56680691 C567.46203418 64.71327266 567.46189318 70.85972482 567.46071517 77.00619292 C567.46053227 82.95292714 567.46502133 88.89965736 567.46932806 94.84638962 C567.47899839 108.51186889 567.48181218 122.17734442 567.48238512 135.84282671 C567.48284465 146.39512055 567.48490292 156.94741291 567.48808575 167.49970627 C567.48898329 170.53707508 567.4898731 173.5744439 567.49076062 176.61181271 C567.49098167 177.36690627 567.49120272 178.12199982 567.49143047 178.899975 C567.49758447 200.13866613 567.50153105 221.37735675 567.50108719 242.61604881 C567.50107161 243.41677 567.50105603 244.21749118 567.50103998 245.04247664 C567.50095687 249.1008789 567.50085783 253.15928116 567.50075527 257.21768342 C567.50072535 258.42670764 567.50072535 258.42670764 567.50069483 259.66015658 C567.5006544 261.29011702 567.5006126 262.92007745 567.50056944 264.55003789 C567.49995658 289.91388037 567.50746527 315.27770949 567.52114201 340.64154816 C567.53650058 369.13616648 567.54510838 397.63077603 567.54417878 426.12539876 C567.54410415 429.16339628 567.54405545 432.2013938 567.54402447 435.23939133 C567.54400699 436.3614442 567.54400699 436.3614442 567.54398915 437.50616481 C567.54395837 449.54627655 567.55034538 461.58637669 567.55895673 473.62648498 C567.56743106 485.72515233 567.56842487 497.82380271 567.56184741 509.92247139 C567.55847598 516.47740976 567.55854928 523.03231451 567.56720066 529.58724976 C567.57503738 535.5865383 567.57366323 541.58575121 567.56491653 547.58503784 C567.5633753 549.75657632 567.56522101 551.92812036 567.5707766 554.09965228 C567.57782578 557.05015071 567.57255147 560.00038305 567.56422043 562.95087242 C567.56918861 563.7947836 567.57415679 564.63869477 567.57927552 565.50817901 C567.51398346 576.43887141 564.95540111 584.36706561 557.49501896 592.48383331 C550.01605259 599.58430948 541.65879098 602.11674099 531.51320171 602.01231575 C530.57496453 602.01872871 529.63672734 602.02514166 528.67005873 602.03174895 C525.5382682 602.04830087 522.40724749 602.03651825 519.27544498 602.02475739 C517.00259664 602.03080098 514.72975236 602.03858024 512.45691526 602.04794252 C506.22033869 602.06851274 499.98399194 602.06413635 493.74739647 602.05558133 C487.70931174 602.05115556 481.67128895 602.06546999 475.63322513 602.07910184 C461.76169179 602.10955884 447.89023154 602.11299439 434.01867177 602.10805579 C423.30628405 602.10438847 412.59392025 602.10791272 401.88153553 602.11650467 C400.34173304 602.11770948 398.80193054 602.11891187 397.26212805 602.12011188 C394.94171102 602.12192641 392.621294 602.12374374 390.30087698 602.12557658 C368.73102578 602.14243213 347.16118358 602.15110941 325.59132671 602.14276314 C324.77843349 602.14245039 323.96554027 602.14213763 323.12801392 602.1418154 C319.00807906 602.14020387 314.88814423 602.13851233 310.76820941 602.1367888 C309.54089143 602.13627554 309.54089143 602.13627554 308.28877914 602.1357519 C306.6341567 602.13505859 304.97953427 602.13436153 303.32491183 602.13366073 C277.57784909 602.12294587 251.83092334 602.13880978 226.08388615 602.17572784 C197.14752237 602.21717055 168.21124346 602.23861286 139.27484834 602.23057687 C136.18881855 602.2297862 133.10278874 602.2290631 130.01675892 602.22838211 C128.87699617 602.22810992 128.87699617 602.22810992 127.7142079 602.22783222 C116.24990054 602.22550149 104.78567895 602.23878747 93.32139301 602.26000595 C80.2817537 602.28411574 67.24230318 602.2872213 54.20266105 602.26242562 C47.55003246 602.25034096 40.89769298 602.24848574 34.24506664 602.27243042 C28.1530088 602.29410265 22.06162904 602.28799646 15.96960323 602.25990705 C13.7678193 602.25460057 11.56598262 602.2593858 9.36425038 602.27537878 C-4.57599607 602.3695962 -14.89441082 601.86835354 -25.68466854 592.06586456 C-33.35422743 583.53791222 -35.02290379 574.261471 -34.87998104 563.09320831 C-34.87715115 562.24029709 -34.87432125 561.38738586 -34.8714056 560.50862885 C-34.86032685 557.81922338 -34.83524647 555.13016714 -34.80966854 552.44086456 C-34.79962279 550.60297879 -34.79049975 548.76508773 -34.78232479 546.92719269 C-34.76042805 542.45245143 -34.72598528 537.97796693 -34.68466854 533.50336456 C-32.37466854 533.50336456 -30.06466854 533.50336456 -27.68466854 533.50336456 C-27.67008602 534.73377472 -27.6555035 535.96418488 -27.64047909 537.23188019 C-27.58223133 541.82428891 -27.50500086 546.41622084 -27.42221737 551.00824738 C-27.38909214 552.99059016 -27.3610221 554.97302445 -27.33823299 556.955513 C-27.304458 559.81560785 -27.25213166 562.67487348 -27.19638729 565.53461456 C-27.18999737 566.41202301 -27.18360744 567.28943146 -27.17702389 568.19342804 C-26.99425467 575.95203017 -25.35784364 582.83018946 -19.68466854 588.50336456 C-14.39114741 592.28598189 -10.13622638 594.62315221 -3.52099228 594.64202976 C-2.44561669 594.64750421 -1.3702411 594.65297865 -0.26227838 594.65861899 C1.51639553 594.66008615 1.51639553 594.66008615 3.33100224 594.66158295 C4.58721608 594.66652092 5.84342993 594.6714589 7.13771087 594.67654651 C10.6312127 594.69014562 14.12470478 594.6975511 17.61822617 594.70397317 C21.38304644 594.71196934 25.14784636 594.72566981 28.91265202 594.73868561 C35.43765153 594.76045948 41.96265308 594.77860064 48.48766994 594.79429054 C57.9218064 594.81698087 67.35592035 594.84512486 76.79003773 594.87460982 C92.09541542 594.922296 107.40080231 594.9655574 122.7062006 595.00605011 C137.57599955 595.04539982 152.44579032 595.08682478 167.3155756 595.13105011 C168.68990481 595.13513652 168.68990481 595.13513652 170.09199824 595.13930548 C174.68829632 595.15298487 179.28459427 595.16670516 183.88089216 595.18044579 C222.02568826 595.29442668 260.1705019 595.40123247 298.31533146 595.50336456 C298.4493285 594.34918533 298.58332554 593.1950061 298.72138309 592.00585175 C298.90068868 590.46945473 299.08003771 588.93306279 299.25942326 587.39667511 C299.34731869 586.63858299 299.43521412 585.88049088 299.52577305 585.09942627 C300.2607836 578.81629892 301.14235195 572.56474708 302.12783146 566.31586456 C302.38548283 564.66940948 302.38548283 564.66940948 302.64833927 562.98969269 C303.19887977 559.49341585 303.75639305 555.99830788 304.31533146 552.50336456 C304.49435001 551.37334015 304.67336857 550.24331573 304.85781193 549.07904816 C307.43320295 532.89842466 310.33050078 516.78833377 313.37783146 500.69086456 C313.54359684 499.80970978 313.70936222 498.92855499 313.88015079 498.02069855 C315.67511023 488.50301172 317.60277443 479.04891998 319.884408 469.63553619 C321.1431465 464.39031088 322.15667993 459.12182148 323.11417484 453.81259918 C324.6472653 445.4706403 326.60329511 437.22439651 328.53945255 428.96845245 C329.18684116 426.20575919 329.82764168 423.44159804 330.46767521 420.67719269 C332.65278206 411.28633382 334.95278074 401.9397145 337.44857121 392.62659454 C338.99377395 386.82645943 340.39685346 381.00089192 341.76064396 375.15570831 C344.28837961 364.37784521 347.19379122 353.72152781 350.19033146 343.06586456 C350.71792478 341.17507832 351.24551262 339.28429054 351.77309513 337.39350128 C354.76945082 326.70438039 357.84038607 316.05701372 361.52382755 305.57978058 C363.52025562 300.02109534 363.52025562 300.02109534 362.31533146 294.50336456 C360.29646018 292.68345452 358.40054865 291.17103581 356.19033146 289.62836456 C354.99347744 288.75333454 353.79944082 287.87443747 352.60830021 286.99164581 C352.03515079 286.56706085 351.46200138 286.14247589 350.8714838 285.70502472 C348.31936684 283.73428113 346.13173484 281.48048345 343.92080021 279.14398956 C342.14257654 277.32682669 340.25632696 275.70739219 338.31533146 274.06586456 C334.2246672 270.52270795 330.79210594 266.63940766 327.31533146 262.50336456 C326.51482365 261.59070831 325.71431583 260.67805206 324.88955021 259.73773956 C294.56037082 224.98625458 272.82836984 182.7064788 257.31533146 139.50336456 C256.89799747 138.35932159 256.48066349 137.21527863 256.05068302 136.03656769 C243.38662132 101.19841459 235.1684797 65.43080222 229.37783146 28.87836456 C229.26992283 28.20468842 229.1620142 27.53101227 229.05083561 26.83692169 C228.74708047 24.92227056 228.45482409 23.00580609 228.16298771 21.08930206 C227.99806828 20.00697296 227.83314884 18.92464386 227.66323185 17.80951691 C227.26282989 14.00443384 227.29340261 10.32901801 227.31533146 6.50336456 C197.53085281 6.5396795 167.74646535 6.59633562 137.96208591 6.68128552 C134.44368575 6.69130266 130.92528513 6.70114684 127.40688419 6.71088409 C126.35623368 6.71379615 126.35623368 6.71379615 125.2843579 6.71676704 C113.95138857 6.74776611 102.61843947 6.76476184 91.28543574 6.77655879 C79.65185527 6.78898122 68.01838682 6.81680361 56.38487238 6.85797763 C49.85252668 6.88061096 43.32033223 6.8962741 36.78794384 6.89524841 C30.63770212 6.89450293 24.48779497 6.91240956 18.33763981 6.94453239 C16.08224291 6.95304115 13.82680853 6.95477473 11.57140255 6.94916725 C8.4869222 6.94252083 5.40350433 6.96046443 2.3191309 6.98438263 C0.98689498 6.972742 0.98689498 6.972742 -0.37225479 6.96086621 C-7.7260585 7.06150169 -13.21979207 9.37719036 -19.43466854 13.19086456 C-26.00357814 19.94224388 -27.41947482 26.66381399 -27.32390499 35.83589935 C-27.33226067 36.94614831 -27.34061634 38.05639727 -27.34922522 39.20029014 C-27.37109415 42.90393326 -27.35756566 46.60657903 -27.34409237 50.31024933 C-27.35254793 52.97167494 -27.36297446 55.63302508 -27.37586117 58.29442596 C-27.39964853 64.01561975 -27.40532325 69.73659818 -27.39851475 75.45783424 C-27.38869746 83.72961674 -27.40647772 92.00116116 -27.43088206 100.2729051 C-27.46973677 113.69486368 -27.48643253 127.11675398 -27.4891119 140.53876495 C-27.4917615 153.57298025 -27.5048976 166.60711579 -27.53208065 179.64130402 C-27.53375403 180.44542831 -27.53542741 181.24955261 -27.53715149 182.0780443 C-27.54561128 186.11230821 -27.55427664 190.14657164 -27.56304419 194.18083489 C-27.63545449 227.6216691 -27.67186865 261.06245463 -27.68466854 294.50336456 C-29.99466854 294.50336456 -32.30466854 294.50336456 -34.68466854 294.50336456 C-34.73047136 261.04154807 -34.76570063 227.57973939 -34.7867992 194.1178985 C-34.78930054 190.16516969 -34.79188919 186.21244094 -34.79453182 182.25971222 C-34.79505644 181.47281302 -34.79558106 180.68591383 -34.79612158 179.8751692 C-34.80481823 167.14285813 -34.82058413 154.41056516 -34.83897413 141.67826481 C-34.85769377 128.60849423 -34.86878963 115.53873311 -34.87284553 102.46894968 C-34.87558631 94.40772175 -34.88423506 86.34654501 -34.90050147 78.28533284 C-34.9123481 72.09835304 -34.91357467 65.91141205 -34.9108839 59.72442245 C-34.91143355 57.19045446 -34.91540413 54.65648451 -34.92307949 52.12252808 C-34.93305846 48.65773822 -34.9306265 45.19316576 -34.92517757 41.72837067 C-34.93100326 40.73028873 -34.93682894 39.7322068 -34.94283116 38.70387995 C-34.89309301 26.96877386 -32.9979049 18.22862267 -24.82919979 9.52680206 C-17.4895546 2.64130657 -9.98691913 -0.10906698 0 0 Z M233.31533146 6.50336456 C233.25153691 14.74037326 233.25153691 14.74037326 234.16298771 22.62836456 C234.35239933 23.7297879 234.54181095 24.83121124 234.73696232 25.96601105 C234.94844913 27.13333771 235.15993595 28.30066437 235.37783146 29.50336456 C235.59898624 30.7486795 235.82014103 31.99399445 236.04799747 33.2770462 C240.16524525 56.22843251 244.60863403 79.1525506 251.31533146 101.50336456 C251.83885197 103.27647003 251.83885197 103.27647003 252.37294865 105.08539581 C265.01617603 147.80231279 281.94536876 189.65065383 307.31533146 226.50336456 C307.74974552 227.13452179 308.18415958 227.76567902 308.63173771 228.41596222 C313.89854791 236.01549769 319.41841997 243.37884325 325.31533146 250.50336456 C326.11197208 251.48563019 326.90861271 252.46789581 327.72939396 253.47992706 C340.42815631 268.97490054 354.59537601 282.42706716 371.31533146 293.50336456 C370.81718937 295.09483307 370.81718937 295.09483307 370.3089838 296.71845245 C361.93464215 323.45636672 361.93464215 323.45636672 354.59658146 350.49164581 C353.55743091 354.63310702 352.39338264 358.72492505 351.18007755 362.81830597 C347.12335237 376.51477417 343.96351834 390.41438261 340.75196171 404.32675934 C339.53248373 409.599216 338.2635306 414.85835606 336.97524357 420.11444855 C334.05058229 432.06315765 331.43926246 444.06588384 328.93813419 456.10907745 C328.66944523 457.39805939 328.40075626 458.68704132 328.12392521 460.01508331 C327.98622715 460.67594437 327.84852909 461.33680542 327.70665836 462.01769257 C326.69821952 466.80857293 325.60894373 471.57760583 324.49916935 476.34593964 C321.68743831 488.46248025 319.37621175 500.62438808 317.25283146 512.87836456 C316.90314897 514.87410992 316.55312903 516.86979619 316.20278263 518.86542511 C315.23162201 524.40991736 314.27124695 529.95622593 313.31533146 535.50336456 C313.09457951 536.78195343 312.87382755 538.0605423 312.64638615 539.37787628 C311.49526016 546.08000995 310.38958269 552.78850831 309.31533146 559.50336456 C309.21307255 560.1398996 309.11081364 560.77643463 309.00545597 561.43225861 C308.30264025 565.80722567 307.6048024 570.18295073 306.91259098 574.55960846 C306.68331766 576.00800573 306.45321141 577.45627142 306.22222233 578.90439606 C305.90114696 580.92127838 305.58422101 582.93876983 305.26845646 584.95648956 C305.08444279 586.12341339 304.90042912 587.29033722 304.71083927 588.49262238 C304.22850044 591.6582508 304.22850044 591.6582508 304.31533146 595.50336456 C336.65533146 595.50336456 368.99533146 595.50336456 402.31533146 595.50336456 C402.2761779 571.87420178 402.2761779 571.87420178 402.22524357 548.24506378 C402.17773477 516.17831327 402.71804245 484.18218347 405.06533146 452.19086456 C405.15114475 450.99230835 405.23695805 449.79375214 405.32537174 448.55887604 C409.28549817 393.68761357 416.88359313 338.04460257 433.0433588 285.3292923 C435.37676967 278.03846913 435.37676967 278.03846913 436.31533146 270.50336456 C434.82076968 268.11581751 434.82076968 268.11581751 432.44033146 266.25336456 C395.43726494 232.40071392 376.59840233 180.37827646 363.31533146 133.50336456 C363.0538129 132.60037628 362.79229435 131.697388 362.52285099 130.76703644 C358.41615854 116.5517818 355.8180548 102.07500583 353.31533146 87.50336456 C353.12551701 86.40556671 352.93570255 85.30776886 352.74013615 84.17670441 C349.31911793 64.20478807 347.36029504 44.35520951 346.0121088 24.14472198 C345.93557072 23.01010529 345.85903263 21.87548859 345.78017521 20.70648956 C345.68144108 19.20070343 345.68144108 19.20070343 345.58071232 17.66449738 C345.26748316 13.93341082 344.77974373 10.21866275 344.31533146 6.50336456 C307.68533146 6.50336456 271.05533146 6.50336456 233.31533146 6.50336456 Z M350.31533146 6.50336456 C352.21953547 42.6832407 355.71269716 78.13276703 363.6527338 113.51068878 C364.23487474 116.1399753 364.78060564 118.77197612 365.30361271 121.41352081 C375.60986812 172.61179181 399.55405608 229.91412372 439.51455021 265.08930206 C441.9780367 268.39176335 441.55365709 270.43280499 441.31533146 274.50336456 C440.60024357 277.74359894 440.60024357 277.74359894 439.59267521 281.09711456 C439.22247257 282.35854279 438.85226994 283.61997101 438.47084904 284.91962433 C438.2723032 285.58390442 438.07375736 286.24818451 437.86919498 286.9325943 C432.90008605 303.62709778 428.90456153 320.4572458 425.31533146 337.50336456 C425.05123478 338.73280792 424.7871381 339.96225128 424.51503849 341.2289505 C419.92132393 362.77992059 417.08576574 384.41142672 414.57314396 406.28534698 C414.19943983 409.50040572 413.80376015 412.71269726 413.40908146 415.92523956 C411.6039236 430.90455735 410.47731594 445.9014204 409.67377567 460.96471405 C409.44031606 465.32991959 409.17789517 469.69209333 408.89357853 474.05426788 C407.36887266 497.81008598 407.12679904 521.54186264 407.12774754 545.33788681 C407.12780331 546.98474508 407.12737403 548.63160344 407.12645054 550.27846146 C407.1237982 555.02389556 407.12765522 559.76924383 407.14144421 564.51465988 C407.14531866 565.97251964 407.14781741 567.43038386 407.14877987 568.88824844 C407.15095595 570.92317116 407.15966939 572.95797108 407.17006779 574.99286652 C407.17387959 576.13415512 407.17769138 577.27544373 407.18161869 578.45131683 C407.3694963 584.14478243 407.8784249 589.82357925 408.31533146 595.50336456 C432.07533146 595.50336456 455.83533146 595.50336456 480.31533146 595.50336456 C479.71720646 590.42961456 479.11908146 585.35586456 478.50283146 580.12836456 C477.83590059 574.10460551 477.19936046 568.07820218 476.57820988 562.04956818 C476.41006213 560.42091263 476.24018523 558.79243409 476.06807804 557.1641922 C470.62379989 505.46110285 470.64040103 451.18323482 476.31533146 399.50336456 C476.54843071 397.3321609 476.78132776 395.16093552 477.01406193 392.98969269 C478.25213521 381.5223345 479.54385642 370.06130597 480.91298771 358.60883331 C481.08011517 357.19117676 481.08011517 357.19117676 481.25061893 355.74488068 C482.07387674 348.96067449 483.16249306 342.23852937 484.31533146 335.50336456 C484.6546582 333.37108866 484.99133675 331.23838602 485.32314396 329.10492706 C487.62538169 314.6137586 490.28656336 300.23496958 493.31533146 285.87836456 C493.48694798 285.06475464 493.65856449 284.25114471 493.83538151 283.41287994 C495.98905146 273.25438305 498.21311776 263.11913637 501.03212833 253.12006378 C502.0803396 249.2667167 502.77511345 246.30289058 501.31533146 242.50336456 C499.83929415 240.93876879 499.83929415 240.93876879 497.87783146 239.75336456 C481.5179813 228.17964078 470.28406714 212.21372508 461.31533146 194.50336456 C460.97163517 193.82837921 460.62793888 193.15339386 460.27382755 192.45795441 C446.98307462 166.04484381 440.3934193 138.68791277 436.31533146 109.50336456 C436.21930637 108.8391449 436.12328129 108.17492523 436.02434635 107.4905777 C433.89100933 92.29080329 434.04352198 77.05661936 434.11971378 61.740242 C434.13049187 59.01922089 434.13018252 56.29825111 434.12957573 53.57721233 C434.12991992 50.2335676 434.13880174 46.88996742 434.14736271 43.54633331 C434.14847553 42.36331131 434.14958836 41.18028931 434.1507349 39.96141815 C434.21133144 28.76980694 434.80563501 17.71668652 435.31533146 6.50336456 C407.26533146 6.50336456 379.21533146 6.50336456 350.31533146 6.50336456 Z M441.31533146 6.50336456 C439.64578842 24.51034455 438.91009515 42.355902 438.94033146 60.44086456 C438.94120762 61.73052124 438.94208378 63.02017792 438.94298649 64.3489151 C439.07342282 122.73970817 449.59399818 185.40728275 492.31533146 228.50336456 C499.80402495 236.47504991 499.80402495 236.47504991 509.31533146 240.50336456 C509.16499454 241.04823517 509.01465763 241.59310577 508.85976505 242.15448761 C504.61466537 257.66690968 501.18108009 273.26994126 498.02236271 289.03607941 C497.37616714 292.20502607 496.69915544 295.36464455 496.00283146 298.52289581 C492.46017048 314.6657993 489.93153733 330.91934189 487.63106632 347.27600861 C487.31784421 349.48563832 486.99705438 351.69404657 486.67421818 353.90229034 C475.08772779 433.57073687 473.49466586 515.9283661 486.31533146 595.50336456 C494.00157673 595.60506986 501.68764741 595.67495859 509.37441349 595.72309113 C511.98743519 595.7431639 514.60041221 595.77042814 517.21328068 595.80512238 C520.97657668 595.85382891 524.73927695 595.87637767 528.50283146 595.89398956 C529.66459904 595.9146347 530.82636662 595.93527985 532.02333927 595.9565506 C541.08050604 595.95903701 547.64471052 593.99369845 554.31533146 587.50336456 C558.08143172 582.33964635 560.43520749 577.96381142 560.44643396 571.48504913 C560.45021861 570.68880933 560.45400325 569.89256953 560.45790258 569.07220125 C560.45699065 568.20157344 560.45607872 567.33094563 560.45513916 566.43393517 C560.45809058 565.50202185 560.46104201 564.57010854 560.46408287 563.60995543 C560.47279654 560.46381074 560.47435657 557.31770272 560.47596073 554.17154694 C560.48069015 551.90245575 560.48584085 549.63336541 560.49137837 547.36427605 C560.50530592 541.11035435 560.51287411 534.85643848 560.51935136 528.60250521 C560.52653209 522.55616242 560.53834043 516.50982959 560.54982635 510.46349387 C560.58168116 493.4917775 560.60151296 476.52005197 560.61911187 459.5483157 C560.62387986 454.95182523 560.62888849 450.35533504 560.63391709 445.75884485 C560.66496206 417.22874267 560.69158042 388.69863814 560.70833588 360.16852379 C560.71227313 353.55845765 560.71628497 346.94839156 560.72036076 340.3383255 C560.72111326 339.10649672 560.72111326 339.10649672 560.72188096 337.84978251 C560.73830031 311.22186981 560.77675922 284.59404899 560.82764786 257.96618149 C560.87986561 230.59297333 560.9126498 203.21981409 560.91991341 175.84655511 C560.92094201 171.9805929 560.92217833 168.11463078 560.92353344 164.24866867 C560.92379148 163.48781299 560.92404952 162.7269573 560.92431537 161.94304539 C560.92901073 149.69742269 560.95394702 137.45192108 560.98628487 125.2063437 C561.01831515 112.89778612 561.02829376 100.5893649 561.01585292 88.28077058 C561.00970809 81.61221485 561.01396441 74.94395905 561.04402256 68.27543831 C561.07131427 62.17093394 561.07093887 56.06708062 561.04851211 49.96256222 C561.04528035 47.75389516 561.05220861 45.54518505 561.07030933 43.3365898 C561.55256173 29.05764723 561.55256173 29.05764723 556.04778534 16.25592911 C552.86011926 13.03125998 549.33728225 10.57379488 545.31533146 8.50336456 C544.64315083 8.15419983 543.97097019 7.8050351 543.27842045 7.44528961 C539.05241916 6.10190219 535.06794083 6.2413956 530.65981388 6.27631378 C529.69348026 6.27602173 528.72714664 6.27572968 527.73153019 6.27542877 C524.54452816 6.27681964 521.35776129 6.29236958 518.17080021 6.30805206 C515.95834322 6.31178305 513.74588457 6.31462962 511.53342533 6.3166275 C505.71536019 6.32425717 499.89739518 6.34390004 494.07936954 6.36603546 C488.14045917 6.38650817 482.20153259 6.39563228 476.26259708 6.40570831 C464.61346459 6.42714648 452.96440636 6.46127448 441.31533146 6.50336456 Z " fill="#F9F2F1" transform="translate(318.6846685409546,198.49663543701172)"/>
<path d="M0 0 C0.99 0.33 1.98 0.66 3 1 C2.4740625 2.2684375 2.4740625 2.2684375 1.9375 3.5625 C0.08542092 10.35345661 2.60819357 16.11825409 5.25390625 22.31640625 C5.75324928 23.51333855 5.75324928 23.51333855 6.26268005 24.73445129 C7.35490249 27.3471123 8.45860676 29.95475133 9.5625 32.5625 C10.32428623 34.37876781 11.08534448 36.19534112 11.84570312 38.01220703 C13.82281342 42.73061826 15.80981382 47.44479153 17.80010986 52.15765381 C19.75445432 56.78718059 21.70309493 61.41910723 23.65234375 66.05078125 C25.7926519 71.13639841 27.93418046 76.22147011 30.08422852 81.30297852 C30.40851334 82.07034836 30.73279816 82.8377182 31.06690979 83.62834167 C31.67082099 85.05713368 32.27561143 86.48555451 32.88145447 87.91352844 C34.01219303 90.59046236 35.08055127 93.24165381 36 96 C37.65 96.33 39.3 96.66 41 97 C41.66 95.02 42.32 93.04 43 91 C43.99 91 44.98 91 46 91 C45.35983027 96.13756468 43.80299667 100.58790181 41.9375 105.375 C41.65583984 106.11105469 41.37417969 106.84710937 41.08398438 107.60546875 C40.39433382 109.4055736 39.69786068 111.2030621 39 113 C32.96205945 112.1590612 29.16934551 110.40263432 25.01806641 105.80493164 C22.75597028 102.66082053 21.27189901 99.43942693 19.8359375 95.87109375 C19.55779205 95.19957779 19.27964661 94.52806183 18.99307251 93.8361969 C18.11262576 91.70639483 17.24345695 89.57221543 16.375 87.4375 C15.49706481 85.3002434 14.61682948 83.1639521 13.73550415 81.02809143 C13.18986543 79.70354145 12.64659582 78.37801229 12.10604858 77.05137634 C10.84584935 73.9713143 9.54506556 70.9487074 8 68 C7.70464355 68.49443604 7.40928711 68.98887207 7.10498047 69.49829102 C4.86828777 72.68744135 3.21423914 74.69252692 -0.65136719 75.67138672 C-3.74261493 75.91211115 -6.77470729 75.9699538 -9.875 75.9375 C-11.47988281 75.96166992 -11.47988281 75.96166992 -13.1171875 75.98632812 C-15.74610143 76.02153679 -18.37108555 76.02514946 -21 76 C-21.24814453 76.66531738 -21.49628906 77.33063477 -21.75195312 78.01611328 C-23.56521187 82.73591914 -25.23803225 86.94581157 -28.5 90.875 C-29.0671875 91.57367187 -29.634375 92.27234375 -30.21875 92.9921875 C-32.06315515 95.07118804 -34.03479344 97.03479344 -36 99 C-30.39 99.33 -24.78 99.66 -19 100 C-19 100.66 -19 101.32 -19 102 C-20.64453125 103.62109375 -20.64453125 103.62109375 -22.8125 105.4375 C-25.7297087 107.85788674 -25.7297087 107.85788674 -28.3359375 110.59130859 C-30.5417263 112.45859166 -31.8082977 112.34761215 -34.66796875 112.29296875 C-35.56064453 112.28330078 -36.45332031 112.27363281 -37.37304688 112.26367188 C-38.30181641 112.23853516 -39.23058594 112.21339844 -40.1875 112.1875 C-41.12787109 112.17396484 -42.06824219 112.16042969 -43.03710938 112.14648438 C-45.35865038 112.11113096 -47.67903653 112.06178674 -50 112 C-47.64911804 107.75072885 -45.25274205 103.89037571 -42.25 100.0625 C-37.16145079 93.2077564 -33.63829383 85.684875 -30 78 C-29.67 77.34 -29.34 76.68 -29 76 C-30.45742463 75.91903197 -31.91612807 75.86082226 -33.375 75.8125 C-34.59316406 75.76029297 -34.59316406 75.76029297 -35.8359375 75.70703125 C-36.55007812 75.80371094 -37.26421875 75.90039062 -38 76 C-38.66 76.99 -39.32 77.98 -40 79 C-40.99 78.67 -41.98 78.34 -43 78 C-41.92711627 72.4675393 -39.18062571 67.75834029 -35 64 C-30.87104169 63.14537771 -27.15284379 63.38627924 -23 64 C-22.83491943 63.46995361 -22.66983887 62.93990723 -22.49975586 62.39379883 C-20.54745227 56.31520032 -18.17487936 50.50974782 -15.5625 44.6875 C-15.18029297 43.80771484 -14.79808594 42.92792969 -14.40429688 42.02148438 C-12.45084372 37.65357639 -10.79918127 34.08953921 -7 31 C-7.31582031 30.46117187 -7.63164062 29.92234375 -7.95703125 29.3671875 C-10.15306558 24.3829298 -9.95809215 19.28351402 -9 14 C-6.69862102 8.91227712 -3.35260973 4.4368863 0 0 Z " fill="#FBF7F6" transform="translate(165,501)"/>
<path d="M0 0 C5.35992463 2.42713568 7.83989421 6.34221145 10.3125 11.5 C11.49005859 10.30890625 11.49005859 10.30890625 12.69140625 9.09375 C13.75171762 8.06158849 14.81296562 7.03038854 15.875 6 C16.38869141 5.47535156 16.90238281 4.95070313 17.43164062 4.41015625 C20.43332302 1.53898179 21.74954249 0.56222162 26.0234375 0.08984375 C32.65156753 0.91639203 36.0740234 3.94643174 40.2109375 8.87890625 C41.3125 10.5 41.3125 10.5 41.3125 12.5 C46.11463111 9.5448424 49.96593105 6.08318802 53.96875 2.109375 C56.96706276 0.05053357 58.74195191 0.12137812 62.3125 0.5 C68.15528731 2.76557059 72.00084202 6.00397742 74.92504883 11.56860352 C76.75889146 16.04299287 76.78870979 20.36943573 76.82421875 25.15234375 C76.84216995 26.05247696 76.86012115 26.95261017 76.87861633 27.88002014 C76.93245245 30.73246691 76.96652888 33.58474893 77 36.4375 C77.03319668 38.38088217 77.0676885 40.32424267 77.10351562 42.26757812 C77.18816341 47.01159936 77.25510136 51.755574 77.3125 56.5 C77.910625 56.17 78.50875 55.84 79.125 55.5 C81.3125 54.5 81.3125 54.5 84.3125 54.5 C82.69188967 58.49432781 79.91910827 61.29558321 76.9375 64.3125 C76.45539063 64.82748047 75.97328125 65.34246094 75.4765625 65.87304688 C74.0390625 67.33203125 74.0390625 67.33203125 71.3125 69.5 C69.25073242 69.3551178 69.25073242 69.3551178 67.3125 68.5 C64.47944593 62.77301302 63.91893263 58.02742577 64.125 51.72265625 C64.13635986 50.91187119 64.14771973 50.10108612 64.15942383 49.26573181 C64.20795335 45.83484765 64.29246683 42.40508568 64.37402344 38.97485352 C64.42870861 36.4533396 64.46470817 33.93200473 64.5 31.41015625 C64.52489502 30.65050064 64.54979004 29.89084503 64.57543945 29.10816956 C64.64977346 23.6001629 63.83793665 18.45860591 61.3125 13.5 C58.16699364 11.40299576 56.24954565 11.17075532 52.54296875 10.94140625 C49.0112947 11.82587103 46.50766904 13.66174923 44.3125 16.5 C43.49260918 19.66439395 43.61098083 22.70610408 43.7265625 25.95703125 C43.73929703 27.31147591 43.73929703 27.31147591 43.75228882 28.69328308 C43.78578455 31.56758692 43.86105414 34.43904933 43.9375 37.3125 C43.96760467 39.26493334 43.9949796 41.21741081 44.01953125 43.16992188 C44.08556313 47.94770364 44.18905653 52.72337069 44.3125 57.5 C46.2925 56.18 48.2725 54.86 50.3125 53.5 C50.3125 58.07922668 49.34155216 59.00939669 46.2421875 62.16601562 C45.68789063 62.70935547 45.13359375 63.25269531 44.5625 63.8125 C44.02367187 64.37517578 43.48484375 64.93785156 42.9296875 65.51757812 C41.328125 67.11328125 41.328125 67.11328125 38.3125 69.5 C36.31152344 69.46166992 36.31152344 69.46166992 34.3125 68.5 C30.53504574 64.16854763 30.88722823 59.58452986 30.90625 54.140625 C30.89541382 53.23681091 30.88457764 52.33299683 30.87341309 51.40179443 C30.83922106 48.51779027 30.82358188 45.6341799 30.8125 42.75 C30.79784212 38.96316795 30.76395734 35.17720226 30.71875 31.390625 C30.72177124 30.53406311 30.72479248 29.67750122 30.72790527 28.79498291 C30.65773 23.07569783 29.96409191 17.65137248 27.3125 12.5 C23.52814795 9.97709863 21.79785759 9.89181592 17.3125 10.5 C14.10690848 12.48974896 11.7035625 14.90707546 10.79058838 18.62591553 C10.61907241 21.12357982 10.63708022 23.55276305 10.7265625 26.0546875 C10.73505219 26.95623566 10.74354187 27.85778381 10.75228882 28.78665161 C10.78572974 31.65067847 10.86098846 34.51183233 10.9375 37.375 C10.96761178 39.32287584 10.99498546 41.27079607 11.01953125 43.21875 C11.08549023 47.98026437 11.18894496 52.73964606 11.3125 57.5 C11.910625 57.005 12.50875 56.51 13.125 56 C15.3125 54.5 15.3125 54.5 18.3125 54.5 C16.65386495 58.82504836 13.441459 61.59418825 10.1875 64.75 C9.62417969 65.30429687 9.06085938 65.85859375 8.48046875 66.4296875 C7.09563972 67.79104485 5.70466796 69.14614859 4.3125 70.5 C1.10719255 69.50524941 0.33716432 68.54492349 -1.30322266 65.55712891 C-3.21655987 60.81854098 -3.07372812 56.19357325 -3.0234375 51.1484375 C-3.03594178 49.14322588 -3.04897852 47.13801752 -3.0625 45.1328125 C-3.06643867 41.99467522 -3.0624158 38.85685731 -3.04785156 35.71875 C-3.03928819 32.67399655 -3.06093997 29.63057367 -3.0859375 26.5859375 C-3.07259369 25.64938324 -3.05924988 24.71282898 -3.04550171 23.74789429 C-3.08763891 17.98429228 -3.08763891 17.98429228 -6.22509766 13.36962891 C-7.03769043 12.75265137 -7.8502832 12.13567383 -8.6875 11.5 C-9.3475 12.82 -10.0075 14.14 -10.6875 15.5 C-11.6775 15.5 -12.6675 15.5 -13.6875 15.5 C-11.35818693 8.94954598 -7.33626489 0.99474778 0 0 Z " fill="#FAF5F4" transform="translate(404.6875,543.5)"/>
<path d="M0 0 C1.74506836 0.00966797 1.74506836 0.00966797 3.52539062 0.01953125 C4.74033203 0.03628906 5.95527344 0.05304687 7.20703125 0.0703125 C8.43357422 0.07933594 9.66011719 0.08835937 10.92382812 0.09765625 C13.9559242 0.12125233 16.98763063 0.15417409 20.01953125 0.1953125 C19.69421417 0.74938782 19.36889709 1.30346313 19.03372192 1.87432861 C17.8616758 4.55656603 17.77802841 6.41173815 17.79248047 9.33105469 C17.79270706 10.86218903 17.79270706 10.86218903 17.79293823 12.42425537 C17.8032608 13.51917297 17.81358337 14.61409058 17.82421875 15.7421875 C17.82846359 17.43169525 17.82846359 17.43169525 17.83279419 19.15533447 C17.84398751 22.75210196 17.86909088 26.34862029 17.89453125 29.9453125 C17.90456213 32.38411099 17.91368779 34.82291338 17.921875 37.26171875 C17.94392409 43.23966832 17.97739341 49.21747261 18.01953125 55.1953125 C23.04829642 54.89137824 23.04829642 54.89137824 26.95703125 52.1328125 C27.48296875 51.17375 27.48296875 51.17375 28.01953125 50.1953125 C29.00953125 50.5253125 29.99953125 50.8553125 31.01953125 51.1953125 C28.12302603 55.6483509 25.03140406 59.87918523 21.76953125 64.0703125 C21.08117187 64.95976563 21.08117187 64.95976563 20.37890625 65.8671875 C19.26089954 67.3112795 18.14046957 68.7534949 17.01953125 70.1953125 C13.38680541 68.20641079 10.86019878 66.18120896 8.20703125 63.0078125 C7.60246094 62.29238281 6.99789062 61.57695313 6.375 60.83984375 C5.92769531 60.29714844 5.48039062 59.75445313 5.01953125 59.1953125 C4.13910156 59.83339844 3.25867188 60.47148438 2.3515625 61.12890625 C1.17870032 61.96398412 0.00550557 62.79859505 -1.16796875 63.6328125 C-1.74611328 64.05369141 -2.32425781 64.47457031 -2.91992188 64.90820312 C-9.07199027 69.2528842 -9.07199027 69.2528842 -12.98046875 69.1953125 C-21.90220847 63.43759919 -28.34846671 52.97785815 -31.98046875 43.1953125 C-33.38684571 36.42306653 -31.23158967 31.08614951 -27.98046875 25.1953125 C-27.51769531 24.34066406 -27.05492187 23.48601563 -26.578125 22.60546875 C-21.14000769 13.3380659 -11.51729037 -0.11236381 0 0 Z " fill="#FBF7F6" transform="translate(365.98046875,543.8046875)"/>
<path d="M0 0 C1.15693359 0.01289062 2.31386719 0.02578125 3.50585938 0.0390625 C4.70404297 0.07257812 5.90222656 0.10609375 7.13671875 0.140625 C8.96299805 0.16769531 8.96299805 0.16769531 10.82617188 0.1953125 C13.82632297 0.24237369 16.82486764 0.3081119 19.82421875 0.390625 C19.82421875 1.050625 19.82421875 1.710625 19.82421875 2.390625 C19.16421875 2.390625 18.50421875 2.390625 17.82421875 2.390625 C17.77358345 9.45643052 17.73851255 16.5221894 17.71435547 23.58813477 C17.70428674 25.99277495 17.6906309 28.39740286 17.67333984 30.80200195 C17.64913001 34.25475084 17.63774443 37.7073381 17.62890625 41.16015625 C17.61858368 42.23836136 17.60826111 43.31656647 17.59762573 44.42744446 C17.59747467 45.42825546 17.59732361 46.42906647 17.59716797 47.46020508 C17.59050613 48.78257927 17.59050613 48.78257927 17.58370972 50.13166809 C17.67781814 52.67314149 17.67781814 52.67314149 19.82421875 55.390625 C24.22536272 54.88763712 26.53616894 53.30289769 29.82421875 50.390625 C30.15421875 51.050625 30.48421875 51.710625 30.82421875 52.390625 C29.26631554 54.45673741 27.70312198 56.51847139 26.13671875 58.578125 C25.70166016 59.15626953 25.26660156 59.73441406 24.81835938 60.33007812 C22.0417024 63.97058393 19.13316631 67.22476707 15.82421875 70.390625 C14.54908112 69.31236135 13.27929306 68.22776981 12.01171875 67.140625 C11.30402344 66.53734375 10.59632813 65.9340625 9.8671875 65.3125 C7.90532204 63.46692102 6.3675225 61.59117168 4.82421875 59.390625 C3.87160156 60.12410156 2.91898438 60.85757813 1.9375 61.61328125 C0.67116485 62.56068755 -0.5957953 63.50725886 -1.86328125 64.453125 C-2.48912109 64.93845703 -3.11496094 65.42378906 -3.75976562 65.92382812 C-8.43395024 69.37440421 -8.43395024 69.37440421 -11.85546875 69.44921875 C-20.62393354 65.44879121 -27.43734914 54.94789938 -31.05078125 46.265625 C-33.21188584 39.691726 -32.32342054 34.44001149 -29.6328125 28.203125 C-24.96975254 19.2020441 -18.80756163 11.07618871 -11.17578125 4.390625 C-10.06988647 3.36062378 -10.06988647 3.36062378 -8.94165039 2.30981445 C-5.63883407 0.0180465 -3.97632498 -0.07835123 0 0 Z " fill="#FBF6F6" transform="translate(241.17578125,543.609375)"/>
<path d="M0 0 C4.71875 0.703125 4.71875 0.703125 7.25 3.375 C10.23604145 7.85406218 10.1611323 11.83401686 10.2109375 17.03515625 C10.23903255 18.66602521 10.26769715 20.29688443 10.296875 21.92773438 C10.33790359 24.48591561 10.37480711 27.04392042 10.40136719 29.60229492 C9.8138754 44.86925504 9.8138754 44.86925504 16 58 C20.98261576 58.58619009 24.1120868 57.80611672 28.32421875 55.36328125 C31.76025517 52.56799754 33.82317014 50.21989635 34.4699707 45.7578125 C34.45538818 44.55898438 34.44080566 43.36015625 34.42578125 42.125 C34.41740234 40.81015625 34.40902344 39.4953125 34.40039062 38.140625 C34.37111842 36.76041614 34.34182132 35.38020781 34.3125 34 C34.30099838 32.61980504 34.29121625 31.23959462 34.28320312 29.859375 C34.23014516 21.86853858 34.23014516 21.86853858 33 14 C30.11562221 15.29299694 28.12780579 16.65941363 26 19 C24.76081976 15.50459453 24.76081976 15.50459453 25.81689453 13.27661133 C26.25114746 12.7173999 26.68540039 12.15818848 27.1328125 11.58203125 C27.84824219 10.66067383 27.84824219 10.66067383 28.578125 9.72070312 C29.34382813 8.77614258 29.34382813 8.77614258 30.125 7.8125 C30.61226563 7.17119141 31.09953125 6.52988281 31.6015625 5.86914062 C33.8533628 3.03342934 35.29297263 1.2684273 38.7265625 -0.03515625 C41 0 41 0 43.25 1.75 C46.01726943 5.30791784 46.1369708 8.19654968 46.19287109 12.56616211 C46.20893402 13.70842758 46.22499695 14.85069305 46.24154663 16.02757263 C46.28618835 21.27660564 46.32753767 26.52548939 46.35009766 31.7746582 C46.36336428 34.53411549 46.39107943 37.29282045 46.43212891 40.05200195 C46.4915013 44.04390598 46.50883108 48.03502026 46.5234375 52.02734375 C46.54610687 53.24655014 46.56877625 54.46575653 46.59213257 55.72190857 C46.56680476 66.12514979 44.05913007 75.72616581 36.625 83.375 C35.84382813 84.179375 35.06265625 84.98375 34.2578125 85.8125 C33.14019531 86.8953125 33.14019531 86.8953125 32 88 C31.39929688 88.598125 30.79859375 89.19625 30.1796875 89.8125 C24.6968614 94.91280335 18.56407275 98.14818266 11 98.5 C4.40958113 98.20276493 -1.3448457 95.90139511 -6.0625 91.25 C-6.701875 90.5075 -7.34125 89.765 -8 89 C-5.69 86.36 -3.38 83.72 -1 81 C0.03060547 81.63228516 0.03060547 81.63228516 1.08203125 82.27734375 C1.98308594 82.82519531 2.88414062 83.37304688 3.8125 83.9375 C4.70582031 84.48277344 5.59914063 85.02804687 6.51953125 85.58984375 C10.41188565 87.80266255 13.45928798 88.1839295 17.875 88.25 C18.90367187 88.27578125 19.93234375 88.3015625 20.9921875 88.328125 C24.46340723 87.94944648 26.24007049 87.11530929 29 85 C30.38173419 83.1445652 30.38173419 83.1445652 31.25 81.0625 C31.72179687 80.05896484 31.72179687 80.05896484 32.203125 79.03515625 C34.01312268 74.41256414 34.12312358 70.18382693 34.0625 65.25 C34.05798828 64.55261719 34.05347656 63.85523438 34.04882812 63.13671875 C34.0371002 61.42444197 34.01916653 59.71220967 34 58 C33.33613281 58.54269531 32.67226563 59.08539062 31.98828125 59.64453125 C31.10527344 60.35996094 30.22226562 61.07539062 29.3125 61.8125 C28.44238281 62.52019531 27.57226562 63.22789062 26.67578125 63.95703125 C23.32453791 66.51571777 20.41415064 68.71074192 16.25 69.5625 C10.10284764 68.49856978 5.48511144 64.78974968 1.5625 60.0625 C-1.59932066 53.86533152 -2.31218531 48.04198835 -2.4140625 41.22265625 C-2.43342865 40.41130722 -2.4527948 39.59995819 -2.4727478 38.76402283 C-2.53206966 36.19695228 -2.57873736 33.62983571 -2.625 31.0625 C-2.66322352 29.31183044 -2.70227774 27.56117881 -2.7421875 25.81054688 C-2.83773156 21.54051184 -2.92193537 17.2703889 -3 13 C-6.16115776 14.36983503 -6.9927092 14.9890638 -9 18 C-9.99 17.67 -10.98 17.34 -12 17 C-11.41246271 13.9249292 -10.54526011 12.12098863 -8.49609375 9.765625 C-7.75649414 8.90517578 -7.75649414 8.90517578 -7.00195312 8.02734375 C-6.48568359 7.44082031 -5.96941406 6.85429688 -5.4375 6.25 C-4.91736328 5.64800781 -4.39722656 5.04601562 -3.86132812 4.42578125 C-2.58043726 2.94511841 -1.29103688 1.47182458 0 0 Z " fill="#FBF6F5" transform="translate(281,544)"/>
<path d="M0 0 C1.53333984 0.05414062 1.53333984 0.05414062 3.09765625 0.109375 C5.61066323 0.20331919 8.11586139 0.33446434 10.625 0.5 C9.97394287 1.48516602 9.32288574 2.47033203 8.65209961 3.48535156 C6.36329895 7.50716345 6.09985993 11.17472433 6.19140625 15.734375 C6.18181092 17.29296981 6.17204023 18.85156354 6.16210938 20.41015625 C6.17074254 22.8417493 6.18770892 25.27308188 6.2097168 27.70458984 C6.22419601 30.06921159 6.20902947 32.43230841 6.19140625 34.796875 C6.20788712 35.52501404 6.22436798 36.25315308 6.24134827 37.00335693 C6.22094727 39.05761719 6.22094727 39.05761719 5.625 42.5 C2.74392978 44.91718191 0.97540149 45.44808867 -2.75 46 C-8.2065116 45.24737771 -11.48673797 42.92634197 -14.85546875 38.59765625 C-19.73052372 31.14925849 -21.69371165 24.01598696 -19.91015625 15.203125 C-16.57880883 3.77009836 -12.03924303 -0.80779437 0 0 Z " fill="#9F2219" transform="translate(365.375,554.5)"/>
<path d="M0 0 C1.03125 0.02255859 2.0625 0.04511719 3.125 0.06835938 C5.66814065 0.12722837 8.20833113 0.20939935 10.75 0.3125 C10.09894287 1.29766602 9.44788574 2.28283203 8.77709961 3.29785156 C6.48829895 7.31966345 6.22485993 10.98722433 6.31640625 15.546875 C6.30681092 17.10546981 6.29704023 18.66406354 6.28710938 20.22265625 C6.29574254 22.6542493 6.31270892 25.08558188 6.3347168 27.51708984 C6.34919601 29.88171159 6.33402947 32.24480841 6.31640625 34.609375 C6.33288712 35.33751404 6.34936798 36.06565308 6.36634827 36.81585693 C6.34594727 38.87011719 6.34594727 38.87011719 5.75 42.3125 C2.92401683 44.67000468 1.05478128 45.2549941 -2.5625 45.9375 C-7.93759979 45.02646614 -10.78021868 42.42240869 -14.25 38.3125 C-18.20373887 31.93770621 -21.47595223 24.96789057 -20.25 17.3125 C-18.87486616 13.16509634 -17.25902977 9.1930996 -15.25 5.3125 C-14.52296875 3.90291016 -14.52296875 3.90291016 -13.78125 2.46484375 C-9.66230056 -1.03753456 -5.2085063 -0.21481784 0 0 Z " fill="#9F2118" transform="translate(240.25,554.6875)"/>
<path d="M0 0 C-0.15339844 1.010625 -0.30679687 2.02125 -0.46484375 3.0625 C-1.29173407 9.67762258 -1.36363062 16.34276591 -1.5625 23 C-1.60578135 24.36068789 -1.64939839 25.72136515 -1.69335938 27.08203125 C-1.79886683 30.38793157 -1.90098256 33.69389999 -2 37 C-0.02 36.505 -0.02 36.505 2 36 C2 36.66 2 37.32 2 38 C-0.64 38.66 -3.28 39.32 -6 40 C-6.33 39.34 -6.66 38.68 -7 38 C-7.99 38.495 -7.99 38.495 -9 39 C-12.4375 39.3125 -12.4375 39.3125 -16 39 C-19.63514658 35.48602497 -20.18407696 31.57433448 -20.3125 26.6875 C-20.25936415 21.66616233 -19.56314328 18.75574562 -16 15 C-12.60288868 13.08368079 -9.86464681 12.77916304 -6 13 C-6.020625 11.72125 -6.04125 10.4425 -6.0625 9.125 C-6.125 5.25 -6.125 5.25 -5 3 C-6.32 2.67 -7.64 2.34 -9 2 C-2.25 0 -2.25 0 0 0 Z " fill="#F2E1E0" transform="translate(317,658)"/>
<path d="M0 0 C3.91260733 2.40091813 5.8603576 4.54503427 7 9 C7.67160608 14.93252037 6.32871056 19.15922811 3 24 C-0.07502918 26.7425936 -1.4255059 27.01007884 -5.5625 26.9375 C-9.27732142 25.92436688 -10.64940539 24.983447 -13 22 C-14.97668799 18.04662401 -14.43317742 13.30803844 -14 9 C-12.80095735 5.48363659 -11.11945587 2.8582495 -8.125 0.5625 C-5.20686068 -0.20994864 -3.01132541 -0.36873372 0 0 Z " fill="#F3E4E3" transform="translate(463,671)"/>
<path d="M0 0 C0 0.66 0 1.32 0 2 C-0.66 2 -1.32 2 -2 2 C-2.0275801 4.27076141 -2.04665143 6.54162641 -2.0625 8.8125 C-2.07180542 9.83331665 -2.07180542 9.83331665 -2.08129883 10.87475586 C-2.09054919 15.01940353 -1.78919441 18.95281362 -1.1875 23.0625 C-0.87697992 25.87816176 -0.71518274 27.42466913 -1.9765625 29.97265625 C-3.73207344 32.1439461 -5.49614926 33.74807463 -8 35 C-9.49649362 35.12005453 -10.99874793 35.17531451 -12.5 35.1875 C-13.2940625 35.20167969 -14.088125 35.21585938 -14.90625 35.23046875 C-17 35 -17 35 -19 33 C-18.8125 30.5 -18.8125 30.5 -18 28 C-17.01 27.34 -16.02 26.68 -15 26 C-15 27.98 -15 29.96 -15 32 C-12.66705225 32.04241723 -10.33297433 32.04092937 -8 32 C-6.74050951 30.96593327 -6.74050951 30.96593327 -6.90234375 28.71484375 C-6.91394531 27.79832031 -6.92554688 26.88179687 -6.9375 25.9375 C-6.95103516 24.55884766 -6.95103516 24.55884766 -6.96484375 23.15234375 C-6.97644531 22.44207031 -6.98804688 21.73179687 -7 21 C-7.59683594 21.33257813 -8.19367188 21.66515625 -8.80859375 22.0078125 C-11.91711198 23.4152343 -13.77227465 22.96145011 -17 22 C-19.29036062 20.1677115 -19.89249848 18.79879605 -20.28125 15.91015625 C-20.47110174 11.15595229 -20.19712256 7.74835059 -17 4 C-11.55990515 -0.00849094 -6.60088526 -0.12942912 0 0 Z " fill="#F3E3E2" transform="translate(279,671)"/>
<path d="M0 0 C0.33 0.66 0.66 1.32 1 2 C1.556875 1.649375 2.11375 1.29875 2.6875 0.9375 C5.58531848 -0.23729128 7.0517025 0.06895868 10 1 C10.66 1.66 11.32 2.32 12 3 C12.721875 2.484375 13.44375 1.96875 14.1875 1.4375 C17 0 17 0 19.75 0.25 C22 1 22 1 23 2 C23.08700342 3.63472882 23.10701063 5.27314055 23.09765625 6.91015625 C23.09443359 7.89951172 23.09121094 8.88886719 23.08789062 9.90820312 C23.07951172 10.94912109 23.07113281 11.99003906 23.0625 13.0625 C23.05798828 14.10728516 23.05347656 15.15207031 23.04882812 16.22851562 C23.03699913 18.8190666 23.02051689 21.40950559 23 24 C23.99 24.33 24.98 24.66 26 25 C23.69 25.66 21.38 26.32 19 27 C18.505 15.12 18.505 15.12 18 3 C13.11504475 5.32251426 13.11504475 5.32251426 12 8 C11.7677354 10.71262116 11.58063765 13.40773126 11.4375 16.125 C11.39431641 16.87910156 11.35113281 17.63320313 11.30664062 18.41015625 C11.2005168 20.27321888 11.09974999 22.13658524 11 24 C11.66 24.33 12.32 24.66 13 25 C10.35261084 26.4606285 9.10551666 27 6 27 C6 19.08 6 11.16 6 3 C1.11504475 5.32251426 1.11504475 5.32251426 0 8 C-0.2322646 10.71262116 -0.41936235 13.40773126 -0.5625 16.125 C-0.60568359 16.87910156 -0.64886719 17.63320313 -0.69335938 18.41015625 C-0.7994832 20.27321888 -0.90025001 22.13658524 -1 24 C-0.34 24 0.32 24 1 24 C1 24.66 1 25.32 1 26 C-1.31 26.33 -3.62 26.66 -6 27 C-5.67 19.08 -5.34 11.16 -5 3 C-5.66 2.67 -6.32 2.34 -7 2 C-2.25 0 -2.25 0 0 0 Z " fill="#F2E1E0" transform="translate(342,671)"/>
<path d="M0 0 C2.73124689 2.38278592 3.90982257 4.69324478 5.26171875 8.03515625 C5.65810547 9.00904297 6.05449219 9.98292969 6.46289062 10.98632812 C7.06907227 12.5090332 7.06907227 12.5090332 7.6875 14.0625 C8.10322266 15.08150391 8.51894531 16.10050781 8.94726562 17.15039062 C12 24.71455511 12 24.71455511 12 27 C4.41 27 -3.18 27 -11 27 C-10.19938721 22.99693607 -9.38407407 20.31236285 -7.71484375 16.69921875 C-7.26689453 15.72275391 -6.81894531 14.74628906 -6.35742188 13.74023438 C-5.88884766 12.73283203 -5.42027344 11.72542969 -4.9375 10.6875 C-4.46505859 9.66076172 -3.99261719 8.63402344 -3.50585938 7.57617188 C-2.34197675 5.048548 -1.17322145 2.52329928 0 0 Z " fill="#A0241B" transform="translate(160,538)"/>
<path d="M0 0 C0.66 0 1.32 0 2 0 C2 0.66 2 1.32 2 2 C2.804375 1.979375 3.60875 1.95875 4.4375 1.9375 C7 2 7 2 8 3 C8.15686249 4.55948542 8.25076639 6.12542668 8.31640625 7.69140625 C8.35830078 8.63564453 8.40019531 9.57988281 8.44335938 10.55273438 C8.48267578 11.54595703 8.52199219 12.53917969 8.5625 13.5625 C8.60568359 14.55958984 8.64886719 15.55667969 8.69335938 16.58398438 C8.79980298 19.0558415 8.90181928 21.5278031 9 24 C9.66 24 10.32 24 11 24 C11 24.66 11 25.32 11 26 C8.69 26.66 6.38 27.32 4 28 C3.67 27.01 3.34 26.02 3 25 C2.01 25.66 1.02 26.32 0 27 C-3.1875 27.125 -3.1875 27.125 -6 27 C-8.10306598 23.58251778 -8.40603518 20.97914475 -8 17 C-6.9375 14.125 -6.9375 14.125 -5 12 C-1.57255771 11.6392166 0.88122044 11.44061022 4 13 C3.67 10.36 3.34 7.72 3 5 C-0.3 5.66 -3.6 6.32 -7 7 C-7 6.34 -7 5.68 -7 5 C-5.03277992 3.61876037 -3.03131672 2.28511874 -1 1 C-0.67 0.67 -0.34 0.34 0 0 Z " fill="#F2E3E1" transform="translate(170,670)"/>
<path d="M0 0 C0.33 0.99 0.66 1.98 1 3 C2.0828125 2.2265625 2.0828125 2.2265625 3.1875 1.4375 C6 0 6 0 8.75 0.25 C11 1 11 1 12 2 C12.15686249 3.55948542 12.25076639 5.12542668 12.31640625 6.69140625 C12.35830078 7.63564453 12.40019531 8.57988281 12.44335938 9.55273438 C12.48267578 10.54595703 12.52199219 11.53917969 12.5625 12.5625 C12.60568359 13.55958984 12.64886719 14.55667969 12.69335938 15.58398438 C12.79980298 18.0558415 12.90181928 20.5278031 13 23 C13.66 23 14.32 23 15 23 C15 23.66 15 24.32 15 25 C12.69 25.66 10.38 26.32 8 27 C7.67 19.41 7.34 11.82 7 4 C5.35 4.66 3.7 5.32 2 6 C-0.23915683 11.97108487 -0.23309554 17.68052105 0 24 C0.66 24.33 1.32 24.66 2 25 C-0.64738916 26.4606285 -1.89448334 27 -5 27 C-5 19.41 -5 11.82 -5 4 C-5.66 4 -6.32 4 -7 4 C-7 3.34 -7 2.68 -7 2 C-2.25 0 -2.25 0 0 0 Z " fill="#F4E6E5" transform="translate(399,671)"/>
<path d="M0 0 C0.66 0.33 1.32 0.66 2 1 C1.67 1.99 1.34 2.98 1 4 C2.051875 3.319375 3.10375 2.63875 4.1875 1.9375 C6.82583689 0.42299829 7.74848569 -0.0109354 10.875 0.125 C13 1 13 1 14 3 C14.35225591 9.7343041 14.02420892 16.342642 13 23 C13.99 23 14.98 23 16 23 C16 23.66 16 24.32 16 25 C14.02 25.66 12.04 26.32 10 27 C9.97494385 26.40985107 9.9498877 25.81970215 9.92407227 25.21166992 C9.80799948 22.53673186 9.68532428 19.8621362 9.5625 17.1875 C9.52318359 16.25873047 9.48386719 15.32996094 9.44335938 14.37304688 C9.40146484 13.48037109 9.35957031 12.58769531 9.31640625 11.66796875 C9.27974854 10.84578857 9.24309082 10.0236084 9.20532227 9.17651367 C9.06572228 6.82094822 9.06572228 6.82094822 8 4 C6.04105639 4.11306697 6.04105639 4.11306697 4 5 C1.89682166 9.02608424 1.62676128 12.8227572 1.375 17.3125 C1.26285156 19.19388672 1.26285156 19.19388672 1.1484375 21.11328125 C1.09945313 22.06589844 1.05046875 23.01851562 1 24 C1.66 24 2.32 24 3 24 C3 24.66 3 25.32 3 26 C0.69 26.33 -1.62 26.66 -4 27 C-3.99476318 26.31373535 -3.98952637 25.6274707 -3.98413086 24.92041016 C-3.96339044 21.82194936 -3.95034924 18.72350314 -3.9375 15.625 C-3.92912109 14.54476562 -3.92074219 13.46453125 -3.91210938 12.3515625 C-3.90888672 11.3203125 -3.90566406 10.2890625 -3.90234375 9.2265625 C-3.89710693 8.27346191 -3.89187012 7.32036133 -3.88647461 6.33837891 C-3.84357401 3.97675594 -3.84357401 3.97675594 -5 2 C-2.625 0.9375 -2.625 0.9375 0 0 Z " fill="#F1DEDD" transform="translate(479,671)"/>
<path d="M0 0 C0.66 0.99 1.32 1.98 2 3 C2.721875 2.505 3.44375 2.01 4.1875 1.5 C7.14848659 -0.07919285 8.71253029 -0.28178312 12 0 C13.20270964 2.40541929 13.20316663 4.10366591 13.31640625 6.7890625 C13.35830078 7.73007812 13.40019531 8.67109375 13.44335938 9.640625 C13.48267578 10.62546875 13.52199219 11.6103125 13.5625 12.625 C13.60568359 13.61757813 13.64886719 14.61015625 13.69335938 15.6328125 C13.79961069 18.08839838 13.90164964 20.54408703 14 23 C14.66 23 15.32 23 16 23 C16 23.66 16 24.32 16 25 C13.35261084 26.4606285 12.10551666 27 9 27 C9.01160156 25.84242188 9.02320313 24.68484375 9.03515625 23.4921875 C9.04454077 21.95312662 9.05364026 20.41406399 9.0625 18.875 C9.07087891 18.11445312 9.07925781 17.35390625 9.08789062 16.5703125 C9.10646509 12.2610356 8.86117265 8.24483526 8 4 C4.27385847 5.11854586 4.27385847 5.11854586 2 8 C1.7677354 10.71262116 1.58063765 13.40773126 1.4375 16.125 C1.39431641 16.87910156 1.35113281 17.63320313 1.30664062 18.41015625 C1.2005168 20.27321888 1.09974999 22.13658524 1 24 C1.66 24.33 2.32 24.66 3 25 C0.35261084 26.4606285 -0.89448334 27 -4 27 C-3.67 19.08 -3.34 11.16 -3 3 C-3.66 2.67 -4.32 2.34 -5 2 C-3.35 1.34 -1.7 0.68 0 0 Z " fill="#F1E0DF" transform="translate(240,671)"/>
<path d="M0 0 C0.66 0.99 1.32 1.98 2 3 C2.721875 2.505 3.44375 2.01 4.1875 1.5 C7.14848659 -0.07919285 8.71253029 -0.28178312 12 0 C13.20270964 2.40541929 13.20316663 4.10366591 13.31640625 6.7890625 C13.35830078 7.73007812 13.40019531 8.67109375 13.44335938 9.640625 C13.48267578 10.62546875 13.52199219 11.6103125 13.5625 12.625 C13.60568359 13.61757813 13.64886719 14.61015625 13.69335938 15.6328125 C13.79961069 18.08839838 13.90164964 20.54408703 14 23 C14.66 23 15.32 23 16 23 C16 23.66 16 24.32 16 25 C13.35261084 26.4606285 12.10551666 27 9 27 C9.01160156 25.84242188 9.02320313 24.68484375 9.03515625 23.4921875 C9.04454077 21.95312662 9.05364026 20.41406399 9.0625 18.875 C9.07087891 18.11445312 9.07925781 17.35390625 9.08789062 16.5703125 C9.10646509 12.2610356 8.86117265 8.24483526 8 4 C4.27385847 5.11854586 4.27385847 5.11854586 2 8 C1.7677354 10.71262116 1.58063765 13.40773126 1.4375 16.125 C1.39431641 16.87910156 1.35113281 17.63320313 1.30664062 18.41015625 C1.2005168 20.27321888 1.09974999 22.13658524 1 24 C1.66 24.33 2.32 24.66 3 25 C0.35261084 26.4606285 -0.89448334 27 -4 27 C-3.67 19.08 -3.34 11.16 -3 3 C-3.66 2.67 -4.32 2.34 -5 2 C-3.35 1.34 -1.7 0.68 0 0 Z " fill="#F1E0DF" transform="translate(143,671)"/>
<path d="M0 0 C1.875 1.625 1.875 1.625 3 4 C3 5.98 3 7.96 3 10 C-2.94 10.495 -2.94 10.495 -9 11 C-8.87625 12.423125 -8.7525 13.84625 -8.625 15.3125 C-8.55539063 16.11300781 -8.48578125 16.91351562 -8.4140625 17.73828125 C-8.10435574 20.27224441 -8.10435574 20.27224441 -6 23 C-2.80165127 23.50500243 -1.4213623 23.27331609 1.3125 21.5 C1.869375 21.005 2.42625 20.51 3 20 C3.33 20.99 3.66 21.98 4 23 C-0.49258808 26.36944106 -3.56305587 26.6041049 -9 26 C-11.96858157 23.79259319 -12.82865791 22.51402627 -14 19 C-14.56430864 13.30265311 -14.28586378 8.87214284 -11 4 C-7.48882852 0.393932 -5.04787665 -0.87789159 0 0 Z " fill="#F3E3E2" transform="translate(130,671)"/>
<path d="M0 0 C1.8125 1.0625 1.8125 1.0625 3 3 C3.6875 6.6875 3.6875 6.6875 4 10 C-2.435 10.495 -2.435 10.495 -9 11 C-8.525625 12.794375 -8.05125 14.58875 -7.5625 16.4375 C-7.29566406 17.44683594 -7.02882813 18.45617187 -6.75390625 19.49609375 C-6.24021923 21.91752001 -6.24021923 21.91752001 -5 23 C-1.83379087 23.34229288 -0.39516153 23.25632099 2.3125 21.5 C2.869375 21.005 3.42625 20.51 4 20 C3.6875 21.875 3.6875 21.875 3 24 C-0.66781672 26.44521115 -3.73453233 26.72237759 -8 26 C-10.43119623 24.12984906 -11.64069173 22.71861655 -13 20 C-13.52917341 13.77203604 -13.70505664 8.29293806 -10 3 C-6.89025562 -0.21697695 -4.39571534 -0.56115515 0 0 Z " fill="#F7EEED" transform="translate(384,671)"/>
<path d="M0 0 C2.375 1.75 2.375 1.75 3.375 4.75 C4.28282977 16.02803903 4.28282977 16.02803903 0.375 20.75 C-1.935 20.42 -4.245 20.09 -6.625 19.75 C-8.91186352 13.88991223 -9.62196996 8.81884638 -7.3125 2.875 C-5.2159458 -1.00750778 -4.10915342 -1.95673972 0 0 Z " fill="#A0241B" transform="translate(461.625,674.25)"/>
<path d="M0 0 C0.08086376 2.93804996 0.1404283 5.87388075 0.1875 8.8125 C0.21263672 9.64587891 0.23777344 10.47925781 0.26367188 11.33789062 C0.27817383 12.54155273 0.27817383 12.54155273 0.29296875 13.76953125 C0.31653442 14.87711792 0.31653442 14.87711792 0.34057617 16.00708008 C-0.09739222 18.56990157 -0.94163275 19.45584197 -3 21 C-5.5625 20.9375 -5.5625 20.9375 -8 20 C-10.63858391 15.83285713 -10.53828714 11.78031118 -10 7 C-9.24890243 4.38811878 -8.30982188 2.41813271 -7 0 C-4.3333581 -1.33332095 -2.83319697 -0.67102033 0 0 Z " fill="#9F231A" transform="translate(311,674)"/>
<path d="M0 0 C0.66 0.66 1.32 1.32 2 2 C1.01 3.485 1.01 3.485 0 5 C-0.66 5 -1.32 5 -2 5 C-2 4.34 -2 3.68 -2 3 C-3.65 3.33 -5.3 3.66 -7 4 C-7.11635105 6.29781554 -7.11635105 6.29781554 -6 9 C-4.1629397 10.47958261 -4.1629397 10.47958261 -2 11.875 C1.25018946 14.14311782 1.89601888 14.69845476 3.25 18.625 C3 22 3 22 1.5 24.375 C-1.73825032 26.47986271 -4.15701204 26.86275043 -8 27 C-10.4375 26.0625 -10.4375 26.0625 -12 25 C-11.505 23.515 -11.505 23.515 -11 22 C-8.03 22.33 -5.06 22.66 -2 23 C-2 21.02 -2 19.04 -2 17 C-2.556875 16.7525 -3.11375 16.505 -3.6875 16.25 C-7.69827555 14.08201322 -10.4524519 12.42970894 -12.125 8.0625 C-12 5 -12 5 -10 2.125 C-6.33527144 -0.47084939 -4.40163946 -0.58134861 0 0 Z " fill="#F6EBEA" transform="translate(429,671)"/>
<path d="M0 0 C-0.33 2.97 -0.66 5.94 -1 9 C0.98 9 2.96 9 5 9 C5 9.66 5 10.32 5 11 C2.69 11 0.38 11 -2 11 C-2 18.26 -2 25.52 -2 33 C1.465 32.505 1.465 32.505 5 32 C2.93243723 34.7972908 1.85559629 35.02692273 -1.6875 35.6875 C-3.3271875 35.8421875 -3.3271875 35.8421875 -5 36 C-9.33552675 29.49670987 -6.90842343 19.47827148 -6 12 C-7.32 12 -8.64 12 -10 12 C-10 11.34 -10 10.68 -10 10 C-8.35 10 -6.7 10 -5 10 C-5.061875 8.72125 -5.12375 7.4425 -5.1875 6.125 C-5.29296875 3.9453125 -5.29296875 3.9453125 -5 2 C-2 0 -2 0 0 0 Z " fill="#F2E1E0" transform="translate(213,662)"/>
<path d="M0 0 C0.99 0.66 1.98 1.32 3 2 C2.6875 3.9375 2.6875 3.9375 2 6 C1.01 6.33 0.02 6.66 -1 7 C-1.66 5.68 -2.32 4.36 -3 3 C-3.99 3.33 -4.98 3.66 -6 4 C-8.20190984 9.28458362 -8.60413034 14.44475666 -7 20 C-5.53800741 21.75004531 -5.53800741 21.75004531 -4 23 C0.07964281 21.69844994 0.07964281 21.69844994 4 20 C3.6875 21.875 3.6875 21.875 3 24 C-0.66781672 26.44521115 -3.73453233 26.72237759 -8 26 C-10.43119623 24.12984906 -11.64069173 22.71861655 -13 20 C-13.52917341 13.77203604 -13.70505664 8.29293806 -10 3 C-6.87313086 -0.23469221 -4.41080122 -0.46923417 0 0 Z " fill="#F5E9E8" transform="translate(197,671)"/>
<path d="M0 0 C0.33 0.99 0.66 1.98 1 3 C0.67 3.66 0.34 4.32 0 5 C-0.66 5 -1.32 5 -2 5 C-2 4.34 -2 3.68 -2 3 C-3.65 3 -5.3 3 -7 3 C-7.33 4.32 -7.66 5.64 -8 7 C-7.278125 7.56847656 -6.55625 8.13695312 -5.8125 8.72265625 C1.75955346 15.02218406 1.75955346 15.02218406 2.9375 19.8125 C2 23 2 23 -0.125 25.4375 C-3.44588758 27.24233021 -5.27523051 27.4858395 -9 27 C-9.99 26.34 -10.98 25.68 -12 25 C-12 24.01 -12 23.02 -12 22 C-8.7 22.33 -5.4 22.66 -2 23 C-2.312394 19.72270298 -2.67831543 18.31560357 -5.06640625 15.97265625 C-6.73085681 14.69892179 -8.39752957 13.42808596 -10.06640625 12.16015625 C-12 10 -12 10 -12.37109375 6.89453125 C-12 4 -12 4 -10.5 1.625 C-6.86748926 -0.73613198 -4.28156703 -0.2854378 0 0 Z " fill="#F9F3F2" transform="translate(511,671)"/>
<path d="M0 0 C2.875 0.375 2.875 0.375 3.875 1.375 C3.83696091 3.68953234 3.71959346 6.0029917 3.5625 8.3125 C3.48386719 9.57964844 3.40523438 10.84679687 3.32421875 12.15234375 C2.875 15.375 2.875 15.375 0.875 17.375 C-1.625 17.25 -1.625 17.25 -4.125 16.375 C-6.78511341 13.08152625 -6.48164501 9.44075314 -6.125 5.375 C-4.64198904 1.50269359 -4.19723615 0.50366834 0 0 Z " fill="#A0231A" transform="translate(269.125,673.625)"/>
<path d="M0 0 C0.66 0 1.32 0 2 0 C2 0.66 2 1.32 2 2 C2.804375 1.979375 3.60875 1.95875 4.4375 1.9375 C7 2 7 2 8 3 C8.15686249 4.55948542 8.25076639 6.12542668 8.31640625 7.69140625 C8.37924805 9.10776367 8.37924805 9.10776367 8.44335938 10.55273438 C8.48267578 11.54595703 8.52199219 12.53917969 8.5625 13.5625 C8.60568359 14.55958984 8.64886719 15.55667969 8.69335938 16.58398438 C8.79980298 19.0558415 8.90181928 21.5278031 9 24 C9.66 24 10.32 24 11 24 C11 24.66 11 25.32 11 26 C8.69 26.66 6.38 27.32 4 28 C3.04738513 23.23692563 2.91666643 18.8333472 3 14 C3.66 14 4.32 14 5 14 C4.67 11.36 4.34 8.72 4 6 C0.78282108 4.92760703 -0.05283612 5.06390515 -3.1875 5.9375 C-4.445625 6.288125 -5.70375 6.63875 -7 7 C-7 6.34 -7 5.68 -7 5 C-5.03277992 3.61876037 -3.03131672 2.28511874 -1 1 C-0.67 0.67 -0.34 0.34 0 0 Z " fill="#F7EEED" transform="translate(170,670)"/>
<path d="M0 0 C0.33 0.66 0.66 1.32 1 2 C1.66 2 2.32 2 3 2 C2 4 1 6 0 8 C-0.2322646 10.71262116 -0.41936235 13.40773126 -0.5625 16.125 C-0.60568359 16.87910156 -0.64886719 17.63320313 -0.69335938 18.41015625 C-0.7994832 20.27321888 -0.90025001 22.13658524 -1 24 C-0.34 24 0.32 24 1 24 C1 24.66 1 25.32 1 26 C-1.31 26.33 -3.62 26.66 -6 27 C-5.67 19.08 -5.34 11.16 -5 3 C-5.66 2.67 -6.32 2.34 -7 2 C-2.25 0 -2.25 0 0 0 Z " fill="#F0DEDD" transform="translate(342,671)"/>
<path d="M0 0 C2.375 0.6875 2.375 0.6875 3.375 1.6875 C3.46200342 3.32222882 3.48201063 4.96064055 3.47265625 6.59765625 C3.46943359 7.58701172 3.46621094 8.57636719 3.46289062 9.59570312 C3.45451172 10.63662109 3.44613281 11.67753906 3.4375 12.75 C3.43298828 13.79478516 3.42847656 14.83957031 3.42382812 15.91601562 C3.41199913 18.5065666 3.39551689 21.09700559 3.375 23.6875 C4.365 24.0175 5.355 24.3475 6.375 24.6875 C4.065 25.3475 1.755 26.0075 -0.625 26.6875 C-0.955 18.7675 -1.285 10.8475 -1.625 2.6875 C-2.945 2.3575 -4.265 2.0275 -5.625 1.6875 C-2.625 -0.3125 -2.625 -0.3125 0 0 Z " fill="#F6EAE9" transform="translate(361.625,671.3125)"/>
<path d="M0 0 C1.8125 1.0625 1.8125 1.0625 3 3 C3.6875 6.6875 3.6875 6.6875 4 10 C2.39679026 10.19551338 0.79237014 10.38111983 -0.8125 10.5625 C-1.70582031 10.66691406 -2.59914063 10.77132812 -3.51953125 10.87890625 C-6 11 -6 11 -9 10 C-8.67 8.02 -8.34 6.04 -8 4 C-8.99 4.66 -9.98 5.32 -11 6 C-8.66339867 0.60784308 -5.78127861 -0.60221652 0 0 Z " fill="#F0DDDC" transform="translate(384,671)"/>
<path d="M0 0 C0 7.59 0 15.18 0 23 C0.66 23 1.32 23 2 23 C2 23.66 2 24.32 2 25 C-0.31 25.66 -2.62 26.32 -5 27 C-5.02505615 26.31373535 -5.0501123 25.6274707 -5.07592773 24.92041016 C-5.19171427 21.82174183 -5.31451885 18.72339077 -5.4375 15.625 C-5.47681641 14.54476562 -5.51613281 13.46453125 -5.55664062 12.3515625 C-5.59853516 11.3203125 -5.64042969 10.2890625 -5.68359375 9.2265625 C-5.72025146 8.27346191 -5.75690918 7.32036133 -5.79467773 6.33837891 C-5.85763465 3.97867651 -5.85763465 3.97867651 -7 2 C-2.25 0 -2.25 0 0 0 Z " fill="#F1DFDE" transform="translate(328,671)"/>
<path d="M0 0 C0.78375 0.2475 1.5675 0.495 2.375 0.75 C5.38715718 6.77431436 3.37483645 16.25106305 2.375 22.75 C3.365 22.75 4.355 22.75 5.375 22.75 C5.375 23.41 5.375 24.07 5.375 24.75 C3.395 25.41 1.415 26.07 -0.625 26.75 C-0.65005615 26.15985107 -0.6751123 25.56970215 -0.70092773 24.96166992 C-0.81700052 22.28673186 -0.93967572 19.6121362 -1.0625 16.9375 C-1.10181641 16.00873047 -1.14113281 15.07996094 -1.18164062 14.12304688 C-1.24448242 12.7840332 -1.24448242 12.7840332 -1.30859375 11.41796875 C-1.34525146 10.59578857 -1.38190918 9.7736084 -1.41967773 8.92651367 C-1.55927772 6.57094822 -1.55927772 6.57094822 -2.625 3.75 C-3.615 3.09 -4.605 2.43 -5.625 1.75 C-2.625 -0.25 -2.625 -0.25 0 0 Z " fill="#F4E7E6" transform="translate(489.625,671.25)"/>
<path d="M0 0 C0 7.59 0 15.18 0 23 C0.66 23 1.32 23 2 23 C2 23.66 2 24.32 2 25 C-0.31 25.66 -2.62 26.32 -5 27 C-5 19.08 -5 11.16 -5 3 C-5.66 2.67 -6.32 2.34 -7 2 C-2.25 0 -2.25 0 0 0 Z " fill="#F3E3E2" transform="translate(443,671)"/>
<path d="M0 0 C0 7.59 0 15.18 0 23 C0.66 23 1.32 23 2 23 C2 23.66 2 24.32 2 25 C-0.31 25.66 -2.62 26.32 -5 27 C-5 19.74 -5 12.48 -5 5 C-5.66 4.67 -6.32 4.34 -7 4 C-7 3.34 -7 2.68 -7 2 C-2.25 0 -2.25 0 0 0 Z " fill="#F2E1E0" transform="translate(228,671)"/>
<path d="M0 0 C1.65 0.33 3.3 0.66 5 1 C5.33 7.93 5.66 14.86 6 22 C6.66 22 7.32 22 8 22 C8 22.66 8 23.32 8 24 C5.35261084 25.4606285 4.10551666 26 1 26 C1.03480469 24.2984375 1.03480469 24.2984375 1.0703125 22.5625 C1.08908814 21.04167332 1.1072864 19.52083943 1.125 18 C1.14175781 17.25621094 1.15851563 16.51242187 1.17578125 15.74609375 C1.21008071 11.8016559 0.94530169 8.32348872 -0.0703125 4.5 C-0.37710938 3.345 -0.68390625 2.19 -1 1 C-0.67 0.67 -0.34 0.34 0 0 Z " fill="#F4E7E6" transform="translate(248,672)"/>
<path d="M0 0 C1.65 0.33 3.3 0.66 5 1 C5.33 7.93 5.66 14.86 6 22 C6.66 22 7.32 22 8 22 C8 22.66 8 23.32 8 24 C5.35261084 25.4606285 4.10551666 26 1 26 C1.03480469 24.2984375 1.03480469 24.2984375 1.0703125 22.5625 C1.08908814 21.04167332 1.1072864 19.52083943 1.125 18 C1.14175781 17.25621094 1.15851563 16.51242187 1.17578125 15.74609375 C1.21008071 11.8016559 0.94530169 8.32348872 -0.0703125 4.5 C-0.37710938 3.345 -0.68390625 2.19 -1 1 C-0.67 0.67 -0.34 0.34 0 0 Z " fill="#F4E7E6" transform="translate(151,672)"/>
<path d="M0 0 C-0.01160156 1.03640625 -0.02320313 2.0728125 -0.03515625 3.140625 C-0.04453837 4.51041486 -0.05363812 5.88020668 -0.0625 7.25 C-0.07087891 7.93191406 -0.07925781 8.61382813 -0.08789062 9.31640625 C-0.21936632 14.27427751 -0.21936632 14.27427751 1 19 C1.99 19.33 2.98 19.66 4 20 C4 20.66 4 21.32 4 22 C1.6875 22.25 1.6875 22.25 -1 22 C-5.34275106 17.50215068 -5.32831981 12.55244377 -5.296875 6.609375 C-5 4 -5 4 -3.0625 1.3125 C-1 0 -1 0 0 0 Z " fill="#F8EFEF" transform="translate(302,675)"/>
<path d="M0 0 C0.09796875 0.81984375 0.1959375 1.6396875 0.296875 2.484375 C0.44640625 3.56203125 0.5959375 4.6396875 0.75 5.75 C0.88921875 6.81734375 1.0284375 7.8846875 1.171875 8.984375 C2.1097748 12.39974598 3.31916918 13.75507663 6 16 C3.8125 16.8125 3.8125 16.8125 1 17 C-1.8125 15.125 -1.8125 15.125 -4 12 C-4.57682127 8.91643211 -4.68934584 6.06758897 -4 3 C-1.5154185 0 -1.5154185 0 0 0 Z " fill="#F5E9E8" transform="translate(263,677)"/>
<path d="M0 0 C4.875 0.875 4.875 0.875 6 2 C6.45977011 7.28735632 6.45977011 7.28735632 4.75 9.9375 C3 11 3 11 0.8125 10.6875 C0.214375 10.460625 -0.38375 10.23375 -1 10 C-2.23076923 4.58461538 -2.23076923 4.58461538 -1.0625 1.625 C-0.5365625 0.820625 -0.5365625 0.820625 0 0 Z " fill="#A0241B" transform="translate(168,684)"/>
<path d="M0 0 C0.99 0.66 1.98 1.32 3 2 C2.6875 3.9375 2.6875 3.9375 2 6 C1.01 6.33 0.02 6.66 -1 7 C-1.66 5.68 -2.32 4.36 -3 3 C-6.0745356 3.7763932 -6.0745356 3.7763932 -8 6 C-8.99 6 -9.98 6 -11 6 C-8.64104302 0.55625312 -5.79651107 -0.48304259 0 0 Z " fill="#EED7D6" transform="translate(197,671)"/>
<path d="M0 0 C2.0625 0.4375 2.0625 0.4375 4 1 C4.38218767 2.65614657 4.71395102 4.32457024 5 6 C4 7 4 7 0.4375 7.0625 C-0.696875 7.041875 -1.83125 7.02125 -3 7 C-1.125 1.125 -1.125 1.125 0 0 Z " fill="#A32C23" transform="translate(124,673)"/>
<path d="M0 0 C0.99 0 1.98 0 3 0 C3.66 1.98 4.32 3.96 5 6 C4 7 4 7 0.4375 7.0625 C-0.696875 7.041875 -1.83125 7.02125 -3 7 C-2.25 2.25 -2.25 2.25 0 0 Z " fill="#A22920" transform="translate(379,673)"/>
<path d="M0 0 C1.64767247 0.28109113 3.29313145 0.57518526 4.9375 0.875 C5.85402344 1.03742187 6.77054687 1.19984375 7.71484375 1.3671875 C8.46894531 1.57601562 9.22304688 1.78484375 10 2 C10.33 2.66 10.66 3.32 11 4 C8.22899606 5.38550197 6.0665294 5.1877467 3 5 C2.01 4.34 1.02 3.68 0 3 C0 2.01 0 1.02 0 0 Z " fill="#EBD2D0" transform="translate(499,693)"/>
<path d="M0 0 C2.475 0.495 2.475 0.495 5 1 C5 3.31 5 5.62 5 8 C4.34 8 3.68 8 3 8 C0 2.25 0 2.25 0 0 Z " fill="#FAF4F4" transform="translate(127,672)"/>
<path d="M0 0 C4.455 0.99 4.455 0.99 9 2 C8.67 2.99 8.34 3.98 8 5 C1.84765625 4.4140625 1.84765625 4.4140625 0 4 C-0.33 3.34 -0.66 2.68 -1 2 C-0.67 1.34 -0.34 0.68 0 0 Z " fill="#EAD0CE" transform="translate(418,693)"/>
<path d="M0 0 C0.66 0 1.32 0 2 0 C1.67 1.65 1.34 3.3 1 5 C-1.64 5.66 -4.28 6.32 -7 7 C-7 6.34 -7 5.68 -7 5 C-5.03277992 3.61876037 -3.03131672 2.28511874 -1 1 C-0.67 0.67 -0.34 0.34 0 0 Z " fill="#E4C2BF" transform="translate(170,670)"/>
<path d="M0 0 C0.66 0 1.32 0 2 0 C2.33 0.99 2.66 1.98 3 3 C3.7425 2.484375 4.485 1.96875 5.25 1.4375 C8 0 8 0 10.3125 0.3125 C10.869375 0.539375 11.42625 0.76625 12 1 C5.25 4.875 5.25 4.875 3 6 C2.34 5.67 1.68 5.34 1 5 C0.375 2.4375 0.375 2.4375 0 0 Z " fill="#E8CAC8" transform="translate(397,671)"/>
<path d="M0 0 C0.556875 0.391875 1.11375 0.78375 1.6875 1.1875 C0.73875 1.455625 -0.21 1.72375 -1.1875 2 C-4.56517273 2.93736588 -4.56517273 2.93736588 -6.3125 6.1875 C-7.3025 6.1875 -8.2925 6.1875 -9.3125 6.1875 C-8.2566902 3.40400144 -7.30731748 2.18340854 -4.9375 0.3125 C-2.3125 -0.8125 -2.3125 -0.8125 0 0 Z " fill="#EDD7D5" transform="translate(269.3125,672.8125)"/>
<path d="M0 0 C-2.91777506 1.94518337 -5.8542951 3.46061249 -9 5 C-9.99 5.495 -9.99 5.495 -11 6 C-8.60159776 0.46522561 -5.82500047 -0.25888891 0 0 Z " fill="#EBD3D1" transform="translate(384,671)"/>
<path d="M0 0 C3.375 -0.125 3.375 -0.125 7 0 C7.66 0.66 8.32 1.32 9 2 C8.01 3.485 8.01 3.485 7 5 C6.34 5 5.68 5 5 5 C5 4.34 5 3.68 5 3 C2.525 2.01 2.525 2.01 0 1 C0 0.67 0 0.34 0 0 Z " fill="#E9CECC" transform="translate(422,671)"/>
<path d="M0 0 C2.64 0 5.28 0 8 0 C8.33 0.99 8.66 1.98 9 3 C8.67 3.66 8.34 4.32 8 5 C7.34 5 6.68 5 6 5 C6 4.34 6 3.68 6 3 C4.02 2.34 2.04 1.68 0 1 C0 0.67 0 0.34 0 0 Z " fill="#EACFCE" transform="translate(503,671)"/>
<path d="M0 0 C1.670625 0.061875 1.670625 0.061875 3.375 0.125 C2.776875 0.3725 2.17875 0.62 1.5625 0.875 C-0.91147521 2.28870012 -2.05870255 3.77555383 -3.625 6.125 C-4.285 4.805 -4.945 3.485 -5.625 2.125 C-3.625 0.125 -3.625 0.125 0 0 Z " fill="#F2E1DF" transform="translate(423.625,671.875)"/>
<path d="M0 0 C1.65 0 3.3 0 5 0 C4.67 1.32 4.34 2.64 4 4 C2.68 4 1.36 4 0 4 C0 2.68 0 1.36 0 0 Z " fill="#F1E0DF" transform="translate(438,661)"/>
<path d="M0 0 C1.65 0 3.3 0 5 0 C4.67 1.32 4.34 2.64 4 4 C2.68 4 1.36 4 0 4 C0 2.68 0 1.36 0 0 Z " fill="#F2E2E1" transform="translate(323,661)"/>
<path d="M0 0 C0.66 0.33 1.32 0.66 2 1 C2 1.66 2 2.32 2 3 C0.02 3.99 -1.96 4.98 -4 6 C-4.99 5.34 -5.98 4.68 -7 4 C-5.824375 3.566875 -5.824375 3.566875 -4.625 3.125 C-1.90328368 2.15087746 -1.90328368 2.15087746 0 0 Z " fill="#EACECC" transform="translate(132,691)"/>
<path d="M0 0 C0.33 0 0.66 0 1 0 C1 2.64 1 5.28 1 8 C-2.75 9.125 -2.75 9.125 -5 8 C-5 7.34 -5 6.68 -5 6 C-2.525 6.495 -2.525 6.495 0 7 C0 4.69 0 2.38 0 0 Z " fill="#E2BDBB" transform="translate(174,676)"/>
<path d="M0 0 C1.65 0.33 3.3 0.66 5 1 C4.01 2.485 4.01 2.485 3 4 C1.68 3.67 0.36 3.34 -1 3 C-0.67 2.01 -0.34 1.02 0 0 Z " fill="#F4E7E6" transform="translate(224,661)"/>
<path d="M0 0 C0.33 0.99 0.66 1.98 1 3 C-0.32 3.99 -1.64 4.98 -3 6 C-4.32 5.34 -5.64 4.68 -7 4 C-5.824375 3.566875 -5.824375 3.566875 -4.625 3.125 C-1.90328368 2.15087746 -1.90328368 2.15087746 0 0 Z " fill="#EDD7D5" transform="translate(387,691)"/>
</svg>
